0
SECTION
2
HEADER
9
$INSUNITS
70
4
9
$ACADVER
1
AC1014
9
$HANDSEED
5
FFFF
0
ENDSEC
0
SECTION
2
TABLES
0
TABLE
2
VPORT
5
8
100
AcDbSymbolTable
0
ENDTAB
0
TABLE
2
LTYPE
5
5
100
AcDbSymbolTable
0
LTYPE
5
14
100
AcDbSymbolTableRecord
100
AcDbLinetypeTableRecord
2
BYBLOCK
70
0
0
LTYPE
5
15
100
AcDbSymbolTableRecord
100
AcDbLinetypeTableRecord
2
BYLAYER
70
0
0
ENDTAB
0
TABLE
2
LAYER
5
2
100
AcDbSymbolTable
70
2
0
LAYER
5
50
100
AcDbSymbolTableRecord
100
AcDbLayerTableRecord
2
0
70
0
6
CONTINUOUS
0
ENDTAB
0
TABLE
2
STYLE
5
3
100
AcDbSymbolTable
70
1
0
STYLE
5
11
100
AcDbSymbolTableRecord
100
AcDbTextStyleTableRecord
2
STANDARD
70
0
0
ENDTAB
0
TABLE
2
VIEW
5
6
100
AcDbSymbolTable
70
0
0
ENDTAB
0
TABLE
2
UCS
5
7
100
AcDbSymbolTable
70
0
0
ENDTAB
0
TABLE
2
APPID
5
9
100
AcDbSymbolTable
70
2
0
APPID
5
12
100
AcDbSymbolTableRecord
100
AcDbRegAppTableRecord
2
ACAD
70
0
0
ENDTAB
0
TABLE
2
DIMSTYLE
5
A
100
AcDbSymbolTable
70
1
0
ENDTAB
0
TABLE
2
BLOCK_RECORD
5
1
100
AcDbSymbolTable
70
1
0
BLOCK_RECORD
5
1F
100
AcDbSymbolTableRecord
100
AcDbBlockTableRecord
2
*MODEL_SPACE
0
BLOCK_RECORD
5
1B
100
AcDbSymbolTableRecord
100
AcDbBlockTableRecord
2
*PAPER_SPACE
0
ENDTAB
0
ENDSEC
0
SECTION
2
BLOCKS
0
BLOCK
5
20
100
AcDbEntity
100
AcDbBlockBegin
2
*MODEL_SPACE
0
ENDBLK
5
21
100
AcDbEntity
100
AcDbBlockEnd
0
BLOCK
5
1C
100
AcDbEntity
100
AcDbBlockBegin
2
*PAPER_SPACE
0
ENDBLK
5
1D
100
AcDbEntity
100
AcDbBlockEnd
0
ENDSEC
0
SECTION
2
ENTITIES
0
LINE
5
100
100
AcDbEntity
8
0
100
AcDbLine
10
-131.30000001490114
20
-85.281573855663225
30
0
11
-131.30000001490114
21
-4.2999999850988502
31
0
0
LINE
5
101
100
AcDbEntity
8
0
100
AcDbLine
10
-131.30000001490114
20
-4.2999999850988502
30
0
11
-129.80000001490114
21
-4.299999985098852
31
0
0
LINE
5
102
100
AcDbEntity
8
0
100
AcDbLine
10
-129.80000001490114
20
-4.299999985098852
30
0
11
-5.8999998345971072
21
-4.2999999850988537
31
0
0
LINE
5
103
100
AcDbEntity
8
0
100
AcDbLine
10
-5.8999998345971072
20
-4.2999999850988537
30
0
11
-5.8999999850988329
21
-85.36103887825854
31
0
0
LINE
5
104
100
AcDbEntity
8
0
100
AcDbLine
10
-5.8999999850988329
20
-85.36103887825854
30
0
11
-4.6847552269549491
21
-84.837428557782204
31
0
0
LINE
5
105
100
AcDbEntity
8
0
100
AcDbLine
10
-4.6847552269549491
20
-84.837428557782204
30
0
11
7.5497099347945884
21
-78.635877142563629
31
0
0
SPLINE
5
106
100
AcDbEntity
8
0
100
AcDbSpline
70
0
71
3
72
20
73
16
74
0
42
0.000000001
43
0.0000000001
44
0.0000000001
40
0.064245750270327057
40
0.064245750270327057
40
0.064245750270327057
40
0.064245750270327057
40
0.1023521792523945
40
0.1023521792523945
40
0.1023521792523945
40
0.27309140505126728
40
0.27309140505126728
40
0.27309140505126728
40
0.55739787645692807
40
0.55739787645692807
40
0.55739787645692807
40
0.85591259588214363
40
0.85591259588214363
40
0.85591259588214363
40
0.99423020294393116
40
0.99423020294393116
40
0.99423020294393116
40
0.99423020294393116
10
7.5497099347945884
20
-78.635877142563629
30
0
10
7.6114775179100995
20
-78.48838142976517
30
0
10
7.6904101350866441
20
-78.270605634683491
30
0
10
7.771676290819344
20
-78.002174994636164
30
0
10
8.1358099364905101
20
-76.799403352628445
30
0
10
8.5529347908108182
20
-74.562967736518772
30
0
10
8.9061563017158178
20
-71.665956266863958
30
0
10
9.4944762023760099
20
-66.840741925665
30
0
10
9.9624992245993287
20
-60.137086155483139
30
0
10
10.085140009174122
20
-52.372259410865212
30
0
10
10.213907301744875
20
-44.219541531148252
30
0
10
9.9524089560646605
20
-34.902962416436324
30
0
10
8.970027914110263
20
-24.739637544930165
30
0
10
8.5148374817918917
20
-20.030417757006251
30
0
10
7.9045076232014804
20
-15.129806231746002
30
0
10
7.1226357003963638
20
-10.03654787630289
30
0
0
LINE
5
107
100
AcDbEntity
8
0
100
AcDbLine
10
7.1226357003963638
20
-10.03654787630289
30
0
11
-1.6186927260009443
21
-0.20357461672949273
31
0
0
LINE
5
108
100
AcDbEntity
8
0
100
AcDbLine
10
-1.6186927260009443
20
-0.20357461672949273
30
0
11
-135.4531769255556
21
-0.14593945825185251
31
0
0
LINE
5
109
100
AcDbEntity
8
0
100
AcDbLine
10
-135.4531769255556
20
-0.14593945825185251
30
0
11
-144.20297115070562
21
-9.9713802523922084
31
0
0
SPLINE
5
110
100
AcDbEntity
8
0
100
AcDbSpline
70
0
71
3
72
20
73
16
74
0
42
0.000000001
43
0.0000000001
44
0.0000000001
40
-0.99423020294393172
40
-0.99423020294393172
40
-0.99423020294393172
40
-0.99423020294393172
40
-0.85591259588206436
40
-0.85591259588206436
40
-0.85591259588206436
40
-0.55739787645666328
40
-0.55739787645666328
40
-0.55739787645666328
40
-0.27309140505082519
40
-0.27309140505082519
40
-0.27309140505082519
40
-0.10235217925234213
40
-0.10235217925234213
40
-0.10235217925234213
40
-0.06424575027032646
40
-0.06424575027032646
40
-0.06424575027032646
40
-0.06424575027032646
10
-144.20297115070562
20
-9.9713802523922066
30
0
10
-144.98922955571732
20
-15.063963300270887
30
0
10
-145.60378003536303
20
-19.964047336876245
30
0
10
-146.06302630250045
20
-24.672873327162208
30
0
10
-147.05416054960301
20
-34.835348314078928
30
0
10
-147.32368307420688
20
-44.151698747284989
30
0
10
-147.20193768333363
20
-52.304524509052428
30
0
10
-147.08598471144941
20
-60.069454002893778
30
0
10
-146.62373565413151
20
-66.773510390145148
30
0
10
-146.03957188028016
20
-71.59922965563473
30
0
10
-145.68884566723926
20
-74.496544276883895
30
0
10
-145.27364718714497
20
-76.733338328911543
30
0
10
-144.91054961165705
20
-77.936423149443542
30
0
10
-144.82951468267817
20
-78.204923683649568
30
0
10
-144.75076966288123
20
-78.422767381825167
30
0
10
-144.68912913925044
20
-78.57031623971406
30
0
0
LINE
5
111
100
AcDbEntity
8
0
100
AcDbLine
10
-144.68912913925044
20
-78.57031623971406
30
0
11
-132.48662614048638
21
-84.768882366740641
31
0
0
LINE
5
112
100
AcDbEntity
8
0
100
AcDbLine
10
-132.48662614048638
20
-84.768882366740641
30
0
11
-131.30000001490114
21
-85.281573855663225
31
0
0
ENDSEC
0
SECTION
2
OBJECTS
0
DICTIONARY
5
C
100
AcDbDictionary
3
ACAD_GROUP
350
D
3
ACAD_MLINESTYLE
350
17
0
DICTIONARY
5
D
100
AcDbDictionary
0
DICTIONARY
5
1A
330
C
100
AcDbDictionary
0
DICTIONARY
5
17
100
AcDbDictionary
0
ENDSEC
0
EOF
