  0
SECTION
  2
HEADER
  9
$ANGBASE
  50
0.0
  9
$ANGDIR
  70
1
  9
$MEASUREMENT
  70
1
  0
ENDSEC
  0
SECTION
  2
TABLES
  0
TABLE
  2
LTYPE
  70
4
  0
LTYPE
  5
40F
  2
CONTINUOUS
  70
0
  3
Solid line
  72
65
  73
0
  40
0.0
  0
LTYPE
  5
410
  2
DASHDOT
 70
0
  3
Dash Dot ____ _ ____ _
 72
65
 73
4
 40
2.0
 49
1.25
 49
-0.25
 49
0.25
 49
-0.25
  0
LTYPE
  5
411
  2
DASHED
 70
0
  3
Dashed __ __ __ __ __
 72
65
 73
2
 40
0.75
 49
0.5
 49
-0.25
  0
LTYPE
  5
43B
  2
DOTTED
 70
0
  3
Dotted .  .  .  .
 72
65
 73
2
 40
0.2
 49
0.0
 49
-0.2
  0
ENDTAB
  0
TABLE
  2
STYLE
  70
4
  0
STYLE
  2
KICAD
  70
0
  40
0
  41
1
  42
1
  50
0
  71
0
  3
isocp.shx
  0
STYLE
  2
KICADB
  70
0
  40
0
  41
1
  42
1
  50
0
  71
0
  3
isocp.shx
  0
STYLE
  2
KICADI
  70
0
  40
0
  41
1
  42
1
  50
15
  71
0
  3
isocp.shx
  0
STYLE
  2
KICADBI
  70
0
  40
0
  41
1
  42
1
  50
15
  71
0
  3
isocp.shx
  0
ENDTAB
  0
TABLE
  2
LAYER
  70
1
  0
LAYER
  2
BLACK
  70
0
  62
7
  6
CONTINUOUS
  0
ENDTAB
  0
ENDSEC
  0
SECTION
  2
ENTITIES
0
LINE
8
BLACK
6
CONTINUOUS
10
86.7428
20
-121.484
11
86.7968
21
-121.531
0
LINE
8
BLACK
6
CONTINUOUS
10
86.7968
20
-121.531
11
86.817
21
-121.6
0
LINE
8
BLACK
6
CONTINUOUS
10
86.817
20
-121.6
11
86.817
21
-127.017
0
LINE
8
BLACK
6
CONTINUOUS
10
86.817
20
-127.017
11
93.242
21
-127.017
0
LINE
8
BLACK
6
CONTINUOUS
10
93.242
20
-127.017
11
93.2778
21
-127.022
0
LINE
8
BLACK
6
CONTINUOUS
10
93.2778
20
-127.022
11
93.338
21
-127.061
0
LINE
8
BLACK
6
CONTINUOUS
10
93.338
20
-127.061
11
93.3677
21
-127.126
0
LINE
8
BLACK
6
CONTINUOUS
10
93.3677
20
-127.126
11
93.3575
21
-127.197
0
LINE
8
BLACK
6
CONTINUOUS
10
93.3575
20
-127.197
11
93.3107
21
-127.251
0
LINE
8
BLACK
6
CONTINUOUS
10
93.3107
20
-127.251
11
93.242
21
-127.271
0
LINE
8
BLACK
6
CONTINUOUS
10
93.242
20
-127.271
11
86.69
21
-127.271
0
LINE
8
BLACK
6
CONTINUOUS
10
86.69
20
-127.271
11
86.6542
21
-127.266
0
LINE
8
BLACK
6
CONTINUOUS
10
86.6542
20
-127.266
11
86.6464
21
-127.261
0
LINE
8
BLACK
6
CONTINUOUS
10
86.6464
20
-127.261
11
86.6372
21
-127.26
0
LINE
8
BLACK
6
CONTINUOUS
10
86.6372
20
-127.26
11
86.6168
21
-127.242
0
LINE
8
BLACK
6
CONTINUOUS
10
86.6168
20
-127.242
11
86.594
21
-127.227
0
LINE
8
BLACK
6
CONTINUOUS
10
86.594
20
-127.227
11
86.5902
21
-127.219
0
LINE
8
BLACK
6
CONTINUOUS
10
86.5902
20
-127.219
11
86.5832
21
-127.213
0
LINE
8
BLACK
6
CONTINUOUS
10
86.5832
20
-127.213
11
86.5755
21
-127.187
0
LINE
8
BLACK
6
CONTINUOUS
10
86.5755
20
-127.187
11
86.5643
21
-127.162
0
LINE
8
BLACK
6
CONTINUOUS
10
86.5643
20
-127.162
11
86.5656
21
-127.153
0
LINE
8
BLACK
6
CONTINUOUS
10
86.5656
20
-127.153
11
86.563
21
-127.144
0
LINE
8
BLACK
6
CONTINUOUS
10
86.563
20
-127.144
11
86.563
21
-121.6
0
LINE
8
BLACK
6
CONTINUOUS
10
86.563
20
-121.6
11
86.5681
21
-121.564
0
LINE
8
BLACK
6
CONTINUOUS
10
86.5681
20
-121.564
11
86.6068
21
-121.504
0
LINE
8
BLACK
6
CONTINUOUS
10
86.6068
20
-121.504
11
86.6719
21
-121.474
0
LINE
8
BLACK
6
CONTINUOUS
10
86.6719
20
-121.474
11
86.7428
21
-121.484
0
LINE
8
BLACK
6
CONTINUOUS
10
207.787
20
-120.476
11
207.841
21
-120.523
0
LINE
8
BLACK
6
CONTINUOUS
10
207.841
20
-120.523
11
207.861
21
-120.592
0
LINE
8
BLACK
6
CONTINUOUS
10
207.861
20
-120.592
11
207.861
21
-127.144
0
LINE
8
BLACK
6
CONTINUOUS
10
207.861
20
-127.144
11
207.856
21
-127.18
0
LINE
8
BLACK
6
CONTINUOUS
10
207.856
20
-127.18
11
207.851
21
-127.188
0
LINE
8
BLACK
6
CONTINUOUS
10
207.851
20
-127.188
11
207.85
21
-127.197
0
LINE
8
BLACK
6
CONTINUOUS
10
207.85
20
-127.197
11
207.832
21
-127.217
0
LINE
8
BLACK
6
CONTINUOUS
10
207.832
20
-127.217
11
207.817
21
-127.24
0
LINE
8
BLACK
6
CONTINUOUS
10
207.817
20
-127.24
11
207.809
21
-127.244
0
LINE
8
BLACK
6
CONTINUOUS
10
207.809
20
-127.244
11
207.803
21
-127.251
0
LINE
8
BLACK
6
CONTINUOUS
10
207.803
20
-127.251
11
207.777
21
-127.258
0
LINE
8
BLACK
6
CONTINUOUS
10
207.777
20
-127.258
11
207.752
21
-127.27
0
LINE
8
BLACK
6
CONTINUOUS
10
207.752
20
-127.27
11
207.743
21
-127.268
0
LINE
8
BLACK
6
CONTINUOUS
10
207.743
20
-127.268
11
207.734
21
-127.271
0
LINE
8
BLACK
6
CONTINUOUS
10
207.734
20
-127.271
11
202.19
21
-127.271
0
LINE
8
BLACK
6
CONTINUOUS
10
202.19
20
-127.271
11
202.154
21
-127.266
0
LINE
8
BLACK
6
CONTINUOUS
10
202.154
20
-127.266
11
202.094
21
-127.227
0
LINE
8
BLACK
6
CONTINUOUS
10
202.094
20
-127.227
11
202.064
21
-127.162
0
LINE
8
BLACK
6
CONTINUOUS
10
202.064
20
-127.162
11
202.074
21
-127.091
0
LINE
8
BLACK
6
CONTINUOUS
10
202.074
20
-127.091
11
202.121
21
-127.037
0
LINE
8
BLACK
6
CONTINUOUS
10
202.121
20
-127.037
11
202.19
21
-127.017
0
LINE
8
BLACK
6
CONTINUOUS
10
202.19
20
-127.017
11
207.607
21
-127.017
0
LINE
8
BLACK
6
CONTINUOUS
10
207.607
20
-127.017
11
207.607
21
-120.592
0
LINE
8
BLACK
6
CONTINUOUS
10
207.607
20
-120.592
11
207.612
21
-120.556
0
LINE
8
BLACK
6
CONTINUOUS
10
207.612
20
-120.556
11
207.651
21
-120.496
0
LINE
8
BLACK
6
CONTINUOUS
10
207.651
20
-120.496
11
207.716
21
-120.466
0
LINE
8
BLACK
6
CONTINUOUS
10
207.716
20
-120.466
11
207.787
21
-120.476
0
LINE
8
BLACK
6
CONTINUOUS
10
219.742
20
-108.108
11
219.76
21
-108.15
0
LINE
8
BLACK
6
CONTINUOUS
10
219.76
20
-108.15
11
219.76
21
-114.25
0
LINE
8
BLACK
6
CONTINUOUS
10
219.76
20
-114.25
11
219.742
21
-114.292
0
LINE
8
BLACK
6
CONTINUOUS
10
219.742
20
-114.292
11
219.7
21
-114.31
0
LINE
8
BLACK
6
CONTINUOUS
10
219.7
20
-114.31
11
218.6
21
-114.31
0
LINE
8
BLACK
6
CONTINUOUS
10
218.6
20
-114.31
11
218.558
21
-114.292
0
LINE
8
BLACK
6
CONTINUOUS
10
218.558
20
-114.292
11
218.54
21
-114.25
0
LINE
8
BLACK
6
CONTINUOUS
10
218.54
20
-114.25
11
218.558
21
-114.208
0
LINE
8
BLACK
6
CONTINUOUS
10
218.558
20
-114.208
11
218.6
21
-114.19
0
LINE
8
BLACK
6
CONTINUOUS
10
218.6
20
-114.19
11
219.64
21
-114.19
0
LINE
8
BLACK
6
CONTINUOUS
10
219.64
20
-114.19
11
219.64
21
-108.15
0
LINE
8
BLACK
6
CONTINUOUS
10
219.64
20
-108.15
11
219.658
21
-108.108
0
LINE
8
BLACK
6
CONTINUOUS
10
219.658
20
-108.108
11
219.7
21
-108.09
0
LINE
8
BLACK
6
CONTINUOUS
10
219.7
20
-108.09
11
219.742
21
-108.108
0
LINE
8
BLACK
6
CONTINUOUS
10
75.4424
20
-107.108
11
75.46
21
-107.15
0
LINE
8
BLACK
6
CONTINUOUS
10
75.46
20
-107.15
11
75.4424
21
-107.192
0
LINE
8
BLACK
6
CONTINUOUS
10
75.4424
20
-107.192
11
75.4
21
-107.21
0
LINE
8
BLACK
6
CONTINUOUS
10
75.4
20
-107.21
11
74.36
21
-107.21
0
LINE
8
BLACK
6
CONTINUOUS
10
74.36
20
-107.21
11
74.36
21
-113.25
0
LINE
8
BLACK
6
CONTINUOUS
10
74.36
20
-113.25
11
74.3424
21
-113.292
0
LINE
8
BLACK
6
CONTINUOUS
10
74.3424
20
-113.292
11
74.3
21
-113.31
0
LINE
8
BLACK
6
CONTINUOUS
10
74.3
20
-113.31
11
74.2576
21
-113.292
0
LINE
8
BLACK
6
CONTINUOUS
10
74.2576
20
-113.292
11
74.24
21
-113.25
0
LINE
8
BLACK
6
CONTINUOUS
10
74.24
20
-113.25
11
74.24
21
-107.15
0
LINE
8
BLACK
6
CONTINUOUS
10
74.24
20
-107.15
11
74.2576
21
-107.108
0
LINE
8
BLACK
6
CONTINUOUS
10
74.2576
20
-107.108
11
74.3
21
-107.09
0
LINE
8
BLACK
6
CONTINUOUS
10
74.3
20
-107.09
11
75.4
21
-107.09
0
LINE
8
BLACK
6
CONTINUOUS
10
75.4
20
-107.09
11
75.4424
21
-107.108
0
LINE
8
BLACK
6
CONTINUOUS
10
79.7424
20
-108.208
11
79.76
21
-108.25
0
LINE
8
BLACK
6
CONTINUOUS
10
79.76
20
-108.25
11
79.76
21
-113.25
0
LINE
8
BLACK
6
CONTINUOUS
10
79.76
20
-113.25
11
79.7424
21
-113.292
0
LINE
8
BLACK
6
CONTINUOUS
10
79.7424
20
-113.292
11
79.7
21
-113.31
0
LINE
8
BLACK
6
CONTINUOUS
10
79.7
20
-113.31
11
79.6576
21
-113.292
0
LINE
8
BLACK
6
CONTINUOUS
10
79.6576
20
-113.292
11
79.64
21
-113.25
0
LINE
8
BLACK
6
CONTINUOUS
10
79.64
20
-113.25
11
79.64
21
-108.25
0
LINE
8
BLACK
6
CONTINUOUS
10
79.64
20
-108.25
11
79.6576
21
-108.208
0
LINE
8
BLACK
6
CONTINUOUS
10
79.6576
20
-108.208
11
79.7
21
-108.19
0
LINE
8
BLACK
6
CONTINUOUS
10
79.7
20
-108.19
11
79.7424
21
-108.208
0
LINE
8
BLACK
6
CONTINUOUS
10
214.342
20
-108.108
11
214.36
21
-108.15
0
LINE
8
BLACK
6
CONTINUOUS
10
214.36
20
-108.15
11
214.36
21
-113.15
0
LINE
8
BLACK
6
CONTINUOUS
10
214.36
20
-113.15
11
214.342
21
-113.192
0
LINE
8
BLACK
6
CONTINUOUS
10
214.342
20
-113.192
11
214.3
21
-113.21
0
LINE
8
BLACK
6
CONTINUOUS
10
214.3
20
-113.21
11
214.258
21
-113.192
0
LINE
8
BLACK
6
CONTINUOUS
10
214.258
20
-113.192
11
214.24
21
-113.15
0
LINE
8
BLACK
6
CONTINUOUS
10
214.24
20
-113.15
11
214.24
21
-108.15
0
LINE
8
BLACK
6
CONTINUOUS
10
214.24
20
-108.15
11
214.258
21
-108.108
0
LINE
8
BLACK
6
CONTINUOUS
10
214.258
20
-108.108
11
214.3
21
-108.09
0
LINE
8
BLACK
6
CONTINUOUS
10
214.3
20
-108.09
11
214.342
21
-108.108
0
LINE
8
BLACK
6
CONTINUOUS
10
80.2824
20
-112.817
11
80.3
21
-112.859
0
LINE
8
BLACK
6
CONTINUOUS
10
80.3
20
-112.859
11
80.3
21
-113.141
0
LINE
8
BLACK
6
CONTINUOUS
10
80.3
20
-113.141
11
80.2824
21
-113.183
0
LINE
8
BLACK
6
CONTINUOUS
10
80.2824
20
-113.183
11
80.24
21
-113.201
0
LINE
8
BLACK
6
CONTINUOUS
10
80.24
20
-113.201
11
80.1976
21
-113.183
0
LINE
8
BLACK
6
CONTINUOUS
10
80.1976
20
-113.183
11
80.18
21
-113.141
0
LINE
8
BLACK
6
CONTINUOUS
10
80.18
20
-113.141
11
80.18
21
-112.859
0
LINE
8
BLACK
6
CONTINUOUS
10
80.18
20
-112.859
11
80.1976
21
-112.817
0
LINE
8
BLACK
6
CONTINUOUS
10
80.1976
20
-112.817
11
80.24
21
-112.799
0
LINE
8
BLACK
6
CONTINUOUS
10
80.24
20
-112.799
11
80.2824
21
-112.817
0
LINE
8
BLACK
6
CONTINUOUS
10
81.3024
20
-112.817
11
81.32
21
-112.859
0
LINE
8
BLACK
6
CONTINUOUS
10
81.32
20
-112.859
11
81.32
21
-113.141
0
LINE
8
BLACK
6
CONTINUOUS
10
81.32
20
-113.141
11
81.3024
21
-113.183
0
LINE
8
BLACK
6
CONTINUOUS
10
81.3024
20
-113.183
11
81.26
21
-113.201
0
LINE
8
BLACK
6
CONTINUOUS
10
81.26
20
-113.201
11
81.2176
21
-113.183
0
LINE
8
BLACK
6
CONTINUOUS
10
81.2176
20
-113.183
11
81.2
21
-113.141
0
LINE
8
BLACK
6
CONTINUOUS
10
81.2
20
-113.141
11
81.2
21
-112.859
0
LINE
8
BLACK
6
CONTINUOUS
10
81.2
20
-112.859
11
81.2176
21
-112.817
0
LINE
8
BLACK
6
CONTINUOUS
10
81.2176
20
-112.817
11
81.26
21
-112.799
0
LINE
8
BLACK
6
CONTINUOUS
10
81.26
20
-112.799
11
81.3024
21
-112.817
0
LINE
8
BLACK
6
CONTINUOUS
10
212.782
20
-108.317
11
212.8
21
-108.359
0
LINE
8
BLACK
6
CONTINUOUS
10
212.8
20
-108.359
11
212.8
21
-108.641
0
LINE
8
BLACK
6
CONTINUOUS
10
212.8
20
-108.641
11
212.782
21
-108.683
0
LINE
8
BLACK
6
CONTINUOUS
10
212.782
20
-108.683
11
212.74
21
-108.701
0
LINE
8
BLACK
6
CONTINUOUS
10
212.74
20
-108.701
11
212.698
21
-108.683
0
LINE
8
BLACK
6
CONTINUOUS
10
212.698
20
-108.683
11
212.68
21
-108.641
0
LINE
8
BLACK
6
CONTINUOUS
10
212.68
20
-108.641
11
212.68
21
-108.359
0
LINE
8
BLACK
6
CONTINUOUS
10
212.68
20
-108.359
11
212.698
21
-108.317
0
LINE
8
BLACK
6
CONTINUOUS
10
212.698
20
-108.317
11
212.74
21
-108.299
0
LINE
8
BLACK
6
CONTINUOUS
10
212.74
20
-108.299
11
212.782
21
-108.317
0
LINE
8
BLACK
6
CONTINUOUS
10
213.802
20
-108.317
11
213.82
21
-108.359
0
LINE
8
BLACK
6
CONTINUOUS
10
213.82
20
-108.359
11
213.82
21
-108.641
0
LINE
8
BLACK
6
CONTINUOUS
10
213.82
20
-108.641
11
213.802
21
-108.683
0
LINE
8
BLACK
6
CONTINUOUS
10
213.802
20
-108.683
11
213.76
21
-108.701
0
LINE
8
BLACK
6
CONTINUOUS
10
213.76
20
-108.701
11
213.718
21
-108.683
0
LINE
8
BLACK
6
CONTINUOUS
10
213.718
20
-108.683
11
213.7
21
-108.641
0
LINE
8
BLACK
6
CONTINUOUS
10
213.7
20
-108.641
11
213.7
21
-108.359
0
LINE
8
BLACK
6
CONTINUOUS
10
213.7
20
-108.359
11
213.718
21
-108.317
0
LINE
8
BLACK
6
CONTINUOUS
10
213.718
20
-108.317
11
213.76
21
-108.299
0
LINE
8
BLACK
6
CONTINUOUS
10
213.76
20
-108.299
11
213.802
21
-108.317
0
LINE
8
BLACK
6
CONTINUOUS
10
219.742
20
-90.7076
11
219.76
21
-90.75
0
LINE
8
BLACK
6
CONTINUOUS
10
219.76
20
-90.75
11
219.76
21
-96.85
0
LINE
8
BLACK
6
CONTINUOUS
10
219.76
20
-96.85
11
219.742
21
-96.8924
0
LINE
8
BLACK
6
CONTINUOUS
10
219.742
20
-96.8924
11
219.7
21
-96.91
0
LINE
8
BLACK
6
CONTINUOUS
10
219.7
20
-96.91
11
218.6
21
-96.91
0
LINE
8
BLACK
6
CONTINUOUS
10
218.6
20
-96.91
11
218.558
21
-96.8924
0
LINE
8
BLACK
6
CONTINUOUS
10
218.558
20
-96.8924
11
218.54
21
-96.85
0
LINE
8
BLACK
6
CONTINUOUS
10
218.54
20
-96.85
11
218.558
21
-96.8076
0
LINE
8
BLACK
6
CONTINUOUS
10
218.558
20
-96.8076
11
218.6
21
-96.79
0
LINE
8
BLACK
6
CONTINUOUS
10
218.6
20
-96.79
11
219.64
21
-96.79
0
LINE
8
BLACK
6
CONTINUOUS
10
219.64
20
-96.79
11
219.64
21
-90.75
0
LINE
8
BLACK
6
CONTINUOUS
10
219.64
20
-90.75
11
219.658
21
-90.7076
0
LINE
8
BLACK
6
CONTINUOUS
10
219.658
20
-90.7076
11
219.7
21
-90.69
0
LINE
8
BLACK
6
CONTINUOUS
10
219.7
20
-90.69
11
219.742
21
-90.7076
0
LINE
8
BLACK
6
CONTINUOUS
10
75.4424
20
-89.6076
11
75.46
21
-89.65
0
LINE
8
BLACK
6
CONTINUOUS
10
75.46
20
-89.65
11
75.4424
21
-89.6924
0
LINE
8
BLACK
6
CONTINUOUS
10
75.4424
20
-89.6924
11
75.4
21
-89.71
0
LINE
8
BLACK
6
CONTINUOUS
10
75.4
20
-89.71
11
74.36
21
-89.71
0
LINE
8
BLACK
6
CONTINUOUS
10
74.36
20
-89.71
11
74.36
21
-95.75
0
LINE
8
BLACK
6
CONTINUOUS
10
74.36
20
-95.75
11
74.3424
21
-95.7924
0
LINE
8
BLACK
6
CONTINUOUS
10
74.3424
20
-95.7924
11
74.3
21
-95.81
0
LINE
8
BLACK
6
CONTINUOUS
10
74.3
20
-95.81
11
74.2576
21
-95.7924
0
LINE
8
BLACK
6
CONTINUOUS
10
74.2576
20
-95.7924
11
74.24
21
-95.75
0
LINE
8
BLACK
6
CONTINUOUS
10
74.24
20
-95.75
11
74.24
21
-89.65
0
LINE
8
BLACK
6
CONTINUOUS
10
74.24
20
-89.65
11
74.2576
21
-89.6076
0
LINE
8
BLACK
6
CONTINUOUS
10
74.2576
20
-89.6076
11
74.3
21
-89.59
0
LINE
8
BLACK
6
CONTINUOUS
10
74.3
20
-89.59
11
75.4
21
-89.59
0
LINE
8
BLACK
6
CONTINUOUS
10
75.4
20
-89.59
11
75.4424
21
-89.6076
0
LINE
8
BLACK
6
CONTINUOUS
10
79.7424
20
-90.7076
11
79.76
21
-90.75
0
LINE
8
BLACK
6
CONTINUOUS
10
79.76
20
-90.75
11
79.76
21
-95.75
0
LINE
8
BLACK
6
CONTINUOUS
10
79.76
20
-95.75
11
79.7424
21
-95.7924
0
LINE
8
BLACK
6
CONTINUOUS
10
79.7424
20
-95.7924
11
79.7
21
-95.81
0
LINE
8
BLACK
6
CONTINUOUS
10
79.7
20
-95.81
11
79.6576
21
-95.7924
0
LINE
8
BLACK
6
CONTINUOUS
10
79.6576
20
-95.7924
11
79.64
21
-95.75
0
LINE
8
BLACK
6
CONTINUOUS
10
79.64
20
-95.75
11
79.64
21
-90.75
0
LINE
8
BLACK
6
CONTINUOUS
10
79.64
20
-90.75
11
79.6576
21
-90.7076
0
LINE
8
BLACK
6
CONTINUOUS
10
79.6576
20
-90.7076
11
79.7
21
-90.69
0
LINE
8
BLACK
6
CONTINUOUS
10
79.7
20
-90.69
11
79.7424
21
-90.7076
0
LINE
8
BLACK
6
CONTINUOUS
10
214.342
20
-90.7076
11
214.36
21
-90.75
0
LINE
8
BLACK
6
CONTINUOUS
10
214.36
20
-90.75
11
214.36
21
-95.75
0
LINE
8
BLACK
6
CONTINUOUS
10
214.36
20
-95.75
11
214.342
21
-95.7924
0
LINE
8
BLACK
6
CONTINUOUS
10
214.342
20
-95.7924
11
214.3
21
-95.81
0
LINE
8
BLACK
6
CONTINUOUS
10
214.3
20
-95.81
11
214.258
21
-95.7924
0
LINE
8
BLACK
6
CONTINUOUS
10
214.258
20
-95.7924
11
214.24
21
-95.75
0
LINE
8
BLACK
6
CONTINUOUS
10
214.24
20
-95.75
11
214.24
21
-90.75
0
LINE
8
BLACK
6
CONTINUOUS
10
214.24
20
-90.75
11
214.258
21
-90.7076
0
LINE
8
BLACK
6
CONTINUOUS
10
214.258
20
-90.7076
11
214.3
21
-90.69
0
LINE
8
BLACK
6
CONTINUOUS
10
214.3
20
-90.69
11
214.342
21
-90.7076
0
LINE
8
BLACK
6
CONTINUOUS
10
80.2824
20
-95.317
11
80.3
21
-95.3594
0
LINE
8
BLACK
6
CONTINUOUS
10
80.3
20
-95.3594
11
80.3
21
-95.6406
0
LINE
8
BLACK
6
CONTINUOUS
10
80.3
20
-95.6406
11
80.2824
21
-95.683
0
LINE
8
BLACK
6
CONTINUOUS
10
80.2824
20
-95.683
11
80.24
21
-95.7006
0
LINE
8
BLACK
6
CONTINUOUS
10
80.24
20
-95.7006
11
80.1976
21
-95.683
0
LINE
8
BLACK
6
CONTINUOUS
10
80.1976
20
-95.683
11
80.18
21
-95.6406
0
LINE
8
BLACK
6
CONTINUOUS
10
80.18
20
-95.6406
11
80.18
21
-95.3594
0
LINE
8
BLACK
6
CONTINUOUS
10
80.18
20
-95.3594
11
80.1976
21
-95.317
0
LINE
8
BLACK
6
CONTINUOUS
10
80.1976
20
-95.317
11
80.24
21
-95.2994
0
LINE
8
BLACK
6
CONTINUOUS
10
80.24
20
-95.2994
11
80.2824
21
-95.317
0
LINE
8
BLACK
6
CONTINUOUS
10
81.3024
20
-95.317
11
81.32
21
-95.3594
0
LINE
8
BLACK
6
CONTINUOUS
10
81.32
20
-95.3594
11
81.32
21
-95.6406
0
LINE
8
BLACK
6
CONTINUOUS
10
81.32
20
-95.6406
11
81.3024
21
-95.683
0
LINE
8
BLACK
6
CONTINUOUS
10
81.3024
20
-95.683
11
81.26
21
-95.7006
0
LINE
8
BLACK
6
CONTINUOUS
10
81.26
20
-95.7006
11
81.2176
21
-95.683
0
LINE
8
BLACK
6
CONTINUOUS
10
81.2176
20
-95.683
11
81.2
21
-95.6406
0
LINE
8
BLACK
6
CONTINUOUS
10
81.2
20
-95.6406
11
81.2
21
-95.3594
0
LINE
8
BLACK
6
CONTINUOUS
10
81.2
20
-95.3594
11
81.2176
21
-95.317
0
LINE
8
BLACK
6
CONTINUOUS
10
81.2176
20
-95.317
11
81.26
21
-95.2994
0
LINE
8
BLACK
6
CONTINUOUS
10
81.26
20
-95.2994
11
81.3024
21
-95.317
0
LINE
8
BLACK
6
CONTINUOUS
10
212.782
20
-90.817
11
212.8
21
-90.8594
0
LINE
8
BLACK
6
CONTINUOUS
10
212.8
20
-90.8594
11
212.8
21
-91.1406
0
LINE
8
BLACK
6
CONTINUOUS
10
212.8
20
-91.1406
11
212.782
21
-91.183
0
LINE
8
BLACK
6
CONTINUOUS
10
212.782
20
-91.183
11
212.74
21
-91.2006
0
LINE
8
BLACK
6
CONTINUOUS
10
212.74
20
-91.2006
11
212.698
21
-91.183
0
LINE
8
BLACK
6
CONTINUOUS
10
212.698
20
-91.183
11
212.68
21
-91.1406
0
LINE
8
BLACK
6
CONTINUOUS
10
212.68
20
-91.1406
11
212.68
21
-90.8594
0
LINE
8
BLACK
6
CONTINUOUS
10
212.68
20
-90.8594
11
212.698
21
-90.817
0
LINE
8
BLACK
6
CONTINUOUS
10
212.698
20
-90.817
11
212.74
21
-90.7994
0
LINE
8
BLACK
6
CONTINUOUS
10
212.74
20
-90.7994
11
212.782
21
-90.817
0
LINE
8
BLACK
6
CONTINUOUS
10
213.802
20
-90.817
11
213.82
21
-90.8594
0
LINE
8
BLACK
6
CONTINUOUS
10
213.82
20
-90.8594
11
213.82
21
-91.1406
0
LINE
8
BLACK
6
CONTINUOUS
10
213.82
20
-91.1406
11
213.802
21
-91.183
0
LINE
8
BLACK
6
CONTINUOUS
10
213.802
20
-91.183
11
213.76
21
-91.2006
0
LINE
8
BLACK
6
CONTINUOUS
10
213.76
20
-91.2006
11
213.718
21
-91.183
0
LINE
8
BLACK
6
CONTINUOUS
10
213.718
20
-91.183
11
213.7
21
-91.1406
0
LINE
8
BLACK
6
CONTINUOUS
10
213.7
20
-91.1406
11
213.7
21
-90.8594
0
LINE
8
BLACK
6
CONTINUOUS
10
213.7
20
-90.8594
11
213.718
21
-90.817
0
LINE
8
BLACK
6
CONTINUOUS
10
213.718
20
-90.817
11
213.76
21
-90.7994
0
LINE
8
BLACK
6
CONTINUOUS
10
213.76
20
-90.7994
11
213.802
21
-90.817
0
LINE
8
BLACK
6
CONTINUOUS
10
219.742
20
-73.3476
11
219.76
21
-73.39
0
LINE
8
BLACK
6
CONTINUOUS
10
219.76
20
-73.39
11
219.76
21
-79.49
0
LINE
8
BLACK
6
CONTINUOUS
10
219.76
20
-79.49
11
219.742
21
-79.5324
0
LINE
8
BLACK
6
CONTINUOUS
10
219.742
20
-79.5324
11
219.7
21
-79.55
0
LINE
8
BLACK
6
CONTINUOUS
10
219.7
20
-79.55
11
218.6
21
-79.55
0
LINE
8
BLACK
6
CONTINUOUS
10
218.6
20
-79.55
11
218.558
21
-79.5324
0
LINE
8
BLACK
6
CONTINUOUS
10
218.558
20
-79.5324
11
218.54
21
-79.49
0
LINE
8
BLACK
6
CONTINUOUS
10
218.54
20
-79.49
11
218.558
21
-79.4476
0
LINE
8
BLACK
6
CONTINUOUS
10
218.558
20
-79.4476
11
218.6
21
-79.43
0
LINE
8
BLACK
6
CONTINUOUS
10
218.6
20
-79.43
11
219.64
21
-79.43
0
LINE
8
BLACK
6
CONTINUOUS
10
219.64
20
-79.43
11
219.64
21
-73.39
0
LINE
8
BLACK
6
CONTINUOUS
10
219.64
20
-73.39
11
219.658
21
-73.3476
0
LINE
8
BLACK
6
CONTINUOUS
10
219.658
20
-73.3476
11
219.7
21
-73.33
0
LINE
8
BLACK
6
CONTINUOUS
10
219.7
20
-73.33
11
219.742
21
-73.3476
0
LINE
8
BLACK
6
CONTINUOUS
10
214.342
20
-73.3476
11
214.36
21
-73.39
0
LINE
8
BLACK
6
CONTINUOUS
10
214.36
20
-73.39
11
214.36
21
-78.39
0
LINE
8
BLACK
6
CONTINUOUS
10
214.36
20
-78.39
11
214.342
21
-78.4324
0
LINE
8
BLACK
6
CONTINUOUS
10
214.342
20
-78.4324
11
214.3
21
-78.45
0
LINE
8
BLACK
6
CONTINUOUS
10
214.3
20
-78.45
11
214.258
21
-78.4324
0
LINE
8
BLACK
6
CONTINUOUS
10
214.258
20
-78.4324
11
214.24
21
-78.39
0
LINE
8
BLACK
6
CONTINUOUS
10
214.24
20
-78.39
11
214.24
21
-73.39
0
LINE
8
BLACK
6
CONTINUOUS
10
214.24
20
-73.39
11
214.258
21
-73.3476
0
LINE
8
BLACK
6
CONTINUOUS
10
214.258
20
-73.3476
11
214.3
21
-73.33
0
LINE
8
BLACK
6
CONTINUOUS
10
214.3
20
-73.33
11
214.342
21
-73.3476
0
LINE
8
BLACK
6
CONTINUOUS
10
75.4424
20
-72.1076
11
75.46
21
-72.15
0
LINE
8
BLACK
6
CONTINUOUS
10
75.46
20
-72.15
11
75.4424
21
-72.1924
0
LINE
8
BLACK
6
CONTINUOUS
10
75.4424
20
-72.1924
11
75.4
21
-72.21
0
LINE
8
BLACK
6
CONTINUOUS
10
75.4
20
-72.21
11
74.36
21
-72.21
0
LINE
8
BLACK
6
CONTINUOUS
10
74.36
20
-72.21
11
74.36
21
-78.25
0
LINE
8
BLACK
6
CONTINUOUS
10
74.36
20
-78.25
11
74.3424
21
-78.2924
0
LINE
8
BLACK
6
CONTINUOUS
10
74.3424
20
-78.2924
11
74.3
21
-78.31
0
LINE
8
BLACK
6
CONTINUOUS
10
74.3
20
-78.31
11
74.2576
21
-78.2924
0
LINE
8
BLACK
6
CONTINUOUS
10
74.2576
20
-78.2924
11
74.24
21
-78.25
0
LINE
8
BLACK
6
CONTINUOUS
10
74.24
20
-78.25
11
74.24
21
-72.15
0
LINE
8
BLACK
6
CONTINUOUS
10
74.24
20
-72.15
11
74.2576
21
-72.1076
0
LINE
8
BLACK
6
CONTINUOUS
10
74.2576
20
-72.1076
11
74.3
21
-72.09
0
LINE
8
BLACK
6
CONTINUOUS
10
74.3
20
-72.09
11
75.4
21
-72.09
0
LINE
8
BLACK
6
CONTINUOUS
10
75.4
20
-72.09
11
75.4424
21
-72.1076
0
LINE
8
BLACK
6
CONTINUOUS
10
79.7424
20
-73.2076
11
79.76
21
-73.25
0
LINE
8
BLACK
6
CONTINUOUS
10
79.76
20
-73.25
11
79.76
21
-78.25
0
LINE
8
BLACK
6
CONTINUOUS
10
79.76
20
-78.25
11
79.7424
21
-78.2924
0
LINE
8
BLACK
6
CONTINUOUS
10
79.7424
20
-78.2924
11
79.7
21
-78.31
0
LINE
8
BLACK
6
CONTINUOUS
10
79.7
20
-78.31
11
79.6576
21
-78.2924
0
LINE
8
BLACK
6
CONTINUOUS
10
79.6576
20
-78.2924
11
79.64
21
-78.25
0
LINE
8
BLACK
6
CONTINUOUS
10
79.64
20
-78.25
11
79.64
21
-73.25
0
LINE
8
BLACK
6
CONTINUOUS
10
79.64
20
-73.25
11
79.6576
21
-73.2076
0
LINE
8
BLACK
6
CONTINUOUS
10
79.6576
20
-73.2076
11
79.7
21
-73.19
0
LINE
8
BLACK
6
CONTINUOUS
10
79.7
20
-73.19
11
79.7424
21
-73.2076
0
LINE
8
BLACK
6
CONTINUOUS
10
80.3524
20
-77.817
11
80.37
21
-77.8594
0
LINE
8
BLACK
6
CONTINUOUS
10
80.37
20
-77.8594
11
80.37
21
-78.1406
0
LINE
8
BLACK
6
CONTINUOUS
10
80.37
20
-78.1406
11
80.3524
21
-78.183
0
LINE
8
BLACK
6
CONTINUOUS
10
80.3524
20
-78.183
11
80.31
21
-78.2006
0
LINE
8
BLACK
6
CONTINUOUS
10
80.31
20
-78.2006
11
80.2676
21
-78.183
0
LINE
8
BLACK
6
CONTINUOUS
10
80.2676
20
-78.183
11
80.25
21
-78.1406
0
LINE
8
BLACK
6
CONTINUOUS
10
80.25
20
-78.1406
11
80.25
21
-77.8594
0
LINE
8
BLACK
6
CONTINUOUS
10
80.25
20
-77.8594
11
80.2676
21
-77.817
0
LINE
8
BLACK
6
CONTINUOUS
10
80.2676
20
-77.817
11
80.31
21
-77.7994
0
LINE
8
BLACK
6
CONTINUOUS
10
80.31
20
-77.7994
11
80.3524
21
-77.817
0
LINE
8
BLACK
6
CONTINUOUS
10
81.3724
20
-77.817
11
81.39
21
-77.8594
0
LINE
8
BLACK
6
CONTINUOUS
10
81.39
20
-77.8594
11
81.39
21
-78.1406
0
LINE
8
BLACK
6
CONTINUOUS
10
81.39
20
-78.1406
11
81.3724
21
-78.183
0
LINE
8
BLACK
6
CONTINUOUS
10
81.3724
20
-78.183
11
81.33
21
-78.2006
0
LINE
8
BLACK
6
CONTINUOUS
10
81.33
20
-78.2006
11
81.2876
21
-78.183
0
LINE
8
BLACK
6
CONTINUOUS
10
81.2876
20
-78.183
11
81.27
21
-78.1406
0
LINE
8
BLACK
6
CONTINUOUS
10
81.27
20
-78.1406
11
81.27
21
-77.8594
0
LINE
8
BLACK
6
CONTINUOUS
10
81.27
20
-77.8594
11
81.2876
21
-77.817
0
LINE
8
BLACK
6
CONTINUOUS
10
81.2876
20
-77.817
11
81.33
21
-77.7994
0
LINE
8
BLACK
6
CONTINUOUS
10
81.33
20
-77.7994
11
81.3724
21
-77.817
0
LINE
8
BLACK
6
CONTINUOUS
10
212.732
20
-74.067
11
212.75
21
-74.1094
0
LINE
8
BLACK
6
CONTINUOUS
10
212.75
20
-74.1094
11
212.75
21
-74.3906
0
LINE
8
BLACK
6
CONTINUOUS
10
212.75
20
-74.3906
11
212.732
21
-74.433
0
LINE
8
BLACK
6
CONTINUOUS
10
212.732
20
-74.433
11
212.69
21
-74.4506
0
LINE
8
BLACK
6
CONTINUOUS
10
212.69
20
-74.4506
11
212.648
21
-74.433
0
LINE
8
BLACK
6
CONTINUOUS
10
212.648
20
-74.433
11
212.63
21
-74.3906
0
LINE
8
BLACK
6
CONTINUOUS
10
212.63
20
-74.3906
11
212.63
21
-74.1094
0
LINE
8
BLACK
6
CONTINUOUS
10
212.63
20
-74.1094
11
212.648
21
-74.067
0
LINE
8
BLACK
6
CONTINUOUS
10
212.648
20
-74.067
11
212.69
21
-74.0494
0
LINE
8
BLACK
6
CONTINUOUS
10
212.69
20
-74.0494
11
212.732
21
-74.067
0
LINE
8
BLACK
6
CONTINUOUS
10
213.752
20
-74.067
11
213.77
21
-74.1094
0
LINE
8
BLACK
6
CONTINUOUS
10
213.77
20
-74.1094
11
213.77
21
-74.3906
0
LINE
8
BLACK
6
CONTINUOUS
10
213.77
20
-74.3906
11
213.752
21
-74.433
0
LINE
8
BLACK
6
CONTINUOUS
10
213.752
20
-74.433
11
213.71
21
-74.4506
0
LINE
8
BLACK
6
CONTINUOUS
10
213.71
20
-74.4506
11
213.668
21
-74.433
0
LINE
8
BLACK
6
CONTINUOUS
10
213.668
20
-74.433
11
213.65
21
-74.3906
0
LINE
8
BLACK
6
CONTINUOUS
10
213.65
20
-74.3906
11
213.65
21
-74.1094
0
LINE
8
BLACK
6
CONTINUOUS
10
213.65
20
-74.1094
11
213.668
21
-74.067
0
LINE
8
BLACK
6
CONTINUOUS
10
213.668
20
-74.067
11
213.71
21
-74.0494
0
LINE
8
BLACK
6
CONTINUOUS
10
213.71
20
-74.0494
11
213.752
21
-74.067
0
LINE
8
BLACK
6
CONTINUOUS
10
219.692
20
-55.9576
11
219.71
21
-56
0
LINE
8
BLACK
6
CONTINUOUS
10
219.71
20
-56
11
219.71
21
-62.1
0
LINE
8
BLACK
6
CONTINUOUS
10
219.71
20
-62.1
11
219.692
21
-62.1424
0
LINE
8
BLACK
6
CONTINUOUS
10
219.692
20
-62.1424
11
219.65
21
-62.16
0
LINE
8
BLACK
6
CONTINUOUS
10
219.65
20
-62.16
11
218.55
21
-62.16
0
LINE
8
BLACK
6
CONTINUOUS
10
218.55
20
-62.16
11
218.508
21
-62.1424
0
LINE
8
BLACK
6
CONTINUOUS
10
218.508
20
-62.1424
11
218.49
21
-62.1
0
LINE
8
BLACK
6
CONTINUOUS
10
218.49
20
-62.1
11
218.508
21
-62.0576
0
LINE
8
BLACK
6
CONTINUOUS
10
218.508
20
-62.0576
11
218.55
21
-62.04
0
LINE
8
BLACK
6
CONTINUOUS
10
218.55
20
-62.04
11
219.59
21
-62.04
0
LINE
8
BLACK
6
CONTINUOUS
10
219.59
20
-62.04
11
219.59
21
-56
0
LINE
8
BLACK
6
CONTINUOUS
10
219.59
20
-56
11
219.608
21
-55.9576
0
LINE
8
BLACK
6
CONTINUOUS
10
219.608
20
-55.9576
11
219.65
21
-55.94
0
LINE
8
BLACK
6
CONTINUOUS
10
219.65
20
-55.94
11
219.692
21
-55.9576
0
LINE
8
BLACK
6
CONTINUOUS
10
75.4424
20
-54.8576
11
75.46
21
-54.9
0
LINE
8
BLACK
6
CONTINUOUS
10
75.46
20
-54.9
11
75.4424
21
-54.9424
0
LINE
8
BLACK
6
CONTINUOUS
10
75.4424
20
-54.9424
11
75.4
21
-54.96
0
LINE
8
BLACK
6
CONTINUOUS
10
75.4
20
-54.96
11
74.36
21
-54.96
0
LINE
8
BLACK
6
CONTINUOUS
10
74.36
20
-54.96
11
74.36
21
-61
0
LINE
8
BLACK
6
CONTINUOUS
10
74.36
20
-61
11
74.3424
21
-61.0424
0
LINE
8
BLACK
6
CONTINUOUS
10
74.3424
20
-61.0424
11
74.3
21
-61.06
0
LINE
8
BLACK
6
CONTINUOUS
10
74.3
20
-61.06
11
74.2576
21
-61.0424
0
LINE
8
BLACK
6
CONTINUOUS
10
74.2576
20
-61.0424
11
74.24
21
-61
0
LINE
8
BLACK
6
CONTINUOUS
10
74.24
20
-61
11
74.24
21
-54.9
0
LINE
8
BLACK
6
CONTINUOUS
10
74.24
20
-54.9
11
74.2576
21
-54.8576
0
LINE
8
BLACK
6
CONTINUOUS
10
74.2576
20
-54.8576
11
74.3
21
-54.84
0
LINE
8
BLACK
6
CONTINUOUS
10
74.3
20
-54.84
11
75.4
21
-54.84
0
LINE
8
BLACK
6
CONTINUOUS
10
75.4
20
-54.84
11
75.4424
21
-54.8576
0
LINE
8
BLACK
6
CONTINUOUS
10
79.7424
20
-55.9576
11
79.76
21
-56
0
LINE
8
BLACK
6
CONTINUOUS
10
79.76
20
-56
11
79.76
21
-61
0
LINE
8
BLACK
6
CONTINUOUS
10
79.76
20
-61
11
79.7424
21
-61.0424
0
LINE
8
BLACK
6
CONTINUOUS
10
79.7424
20
-61.0424
11
79.7
21
-61.06
0
LINE
8
BLACK
6
CONTINUOUS
10
79.7
20
-61.06
11
79.6576
21
-61.0424
0
LINE
8
BLACK
6
CONTINUOUS
10
79.6576
20
-61.0424
11
79.64
21
-61
0
LINE
8
BLACK
6
CONTINUOUS
10
79.64
20
-61
11
79.64
21
-56
0
LINE
8
BLACK
6
CONTINUOUS
10
79.64
20
-56
11
79.6576
21
-55.9576
0
LINE
8
BLACK
6
CONTINUOUS
10
79.6576
20
-55.9576
11
79.7
21
-55.94
0
LINE
8
BLACK
6
CONTINUOUS
10
79.7
20
-55.94
11
79.7424
21
-55.9576
0
LINE
8
BLACK
6
CONTINUOUS
10
214.292
20
-55.9576
11
214.31
21
-56
0
LINE
8
BLACK
6
CONTINUOUS
10
214.31
20
-56
11
214.31
21
-61
0
LINE
8
BLACK
6
CONTINUOUS
10
214.31
20
-61
11
214.292
21
-61.0424
0
LINE
8
BLACK
6
CONTINUOUS
10
214.292
20
-61.0424
11
214.25
21
-61.06
0
LINE
8
BLACK
6
CONTINUOUS
10
214.25
20
-61.06
11
214.208
21
-61.0424
0
LINE
8
BLACK
6
CONTINUOUS
10
214.208
20
-61.0424
11
214.19
21
-61
0
LINE
8
BLACK
6
CONTINUOUS
10
214.19
20
-61
11
214.19
21
-56
0
LINE
8
BLACK
6
CONTINUOUS
10
214.19
20
-56
11
214.208
21
-55.9576
0
LINE
8
BLACK
6
CONTINUOUS
10
214.208
20
-55.9576
11
214.25
21
-55.94
0
LINE
8
BLACK
6
CONTINUOUS
10
214.25
20
-55.94
11
214.292
21
-55.9576
0
LINE
8
BLACK
6
CONTINUOUS
10
80.3224
20
-60.567
11
80.34
21
-60.6094
0
LINE
8
BLACK
6
CONTINUOUS
10
80.34
20
-60.6094
11
80.34
21
-60.8906
0
LINE
8
BLACK
6
CONTINUOUS
10
80.34
20
-60.8906
11
80.3224
21
-60.933
0
LINE
8
BLACK
6
CONTINUOUS
10
80.3224
20
-60.933
11
80.28
21
-60.9506
0
LINE
8
BLACK
6
CONTINUOUS
10
80.28
20
-60.9506
11
80.2376
21
-60.933
0
LINE
8
BLACK
6
CONTINUOUS
10
80.2376
20
-60.933
11
80.22
21
-60.8906
0
LINE
8
BLACK
6
CONTINUOUS
10
80.22
20
-60.8906
11
80.22
21
-60.6094
0
LINE
8
BLACK
6
CONTINUOUS
10
80.22
20
-60.6094
11
80.2376
21
-60.567
0
LINE
8
BLACK
6
CONTINUOUS
10
80.2376
20
-60.567
11
80.28
21
-60.5494
0
LINE
8
BLACK
6
CONTINUOUS
10
80.28
20
-60.5494
11
80.3224
21
-60.567
0
LINE
8
BLACK
6
CONTINUOUS
10
81.3424
20
-60.567
11
81.36
21
-60.6094
0
LINE
8
BLACK
6
CONTINUOUS
10
81.36
20
-60.6094
11
81.36
21
-60.8906
0
LINE
8
BLACK
6
CONTINUOUS
10
81.36
20
-60.8906
11
81.3424
21
-60.933
0
LINE
8
BLACK
6
CONTINUOUS
10
81.3424
20
-60.933
11
81.3
21
-60.9506
0
LINE
8
BLACK
6
CONTINUOUS
10
81.3
20
-60.9506
11
81.2576
21
-60.933
0
LINE
8
BLACK
6
CONTINUOUS
10
81.2576
20
-60.933
11
81.24
21
-60.8906
0
LINE
8
BLACK
6
CONTINUOUS
10
81.24
20
-60.8906
11
81.24
21
-60.6094
0
LINE
8
BLACK
6
CONTINUOUS
10
81.24
20
-60.6094
11
81.2576
21
-60.567
0
LINE
8
BLACK
6
CONTINUOUS
10
81.2576
20
-60.567
11
81.3
21
-60.5494
0
LINE
8
BLACK
6
CONTINUOUS
10
81.3
20
-60.5494
11
81.3424
21
-60.567
0
LINE
8
BLACK
6
CONTINUOUS
10
92.2698
20
-50.8341
11
92.33
21
-50.8728
0
LINE
8
BLACK
6
CONTINUOUS
10
92.33
20
-50.8728
11
92.3597
21
-50.9379
0
LINE
8
BLACK
6
CONTINUOUS
10
92.3597
20
-50.9379
11
92.3495
21
-51.0088
0
LINE
8
BLACK
6
CONTINUOUS
10
92.3495
20
-51.0088
11
92.3027
21
-51.0628
0
LINE
8
BLACK
6
CONTINUOUS
10
92.3027
20
-51.0628
11
92.234
21
-51.083
0
LINE
8
BLACK
6
CONTINUOUS
10
92.234
20
-51.083
11
86.817
21
-51.083
0
LINE
8
BLACK
6
CONTINUOUS
10
86.817
20
-51.083
11
86.817
21
-57.508
0
LINE
8
BLACK
6
CONTINUOUS
10
86.817
20
-57.508
11
86.8119
21
-57.5438
0
LINE
8
BLACK
6
CONTINUOUS
10
86.8119
20
-57.5438
11
86.7732
21
-57.604
0
LINE
8
BLACK
6
CONTINUOUS
10
86.7732
20
-57.604
11
86.7081
21
-57.6337
0
LINE
8
BLACK
6
CONTINUOUS
10
86.7081
20
-57.6337
11
86.6372
21
-57.6235
0
LINE
8
BLACK
6
CONTINUOUS
10
86.6372
20
-57.6235
11
86.5832
21
-57.5767
0
LINE
8
BLACK
6
CONTINUOUS
10
86.5832
20
-57.5767
11
86.563
21
-57.508
0
LINE
8
BLACK
6
CONTINUOUS
10
86.563
20
-57.508
11
86.563
21
-50.956
0
LINE
8
BLACK
6
CONTINUOUS
10
86.563
20
-50.956
11
86.5681
21
-50.9202
0
LINE
8
BLACK
6
CONTINUOUS
10
86.5681
20
-50.9202
11
86.5732
21
-50.9124
0
LINE
8
BLACK
6
CONTINUOUS
10
86.5732
20
-50.9124
11
86.5745
21
-50.9032
0
LINE
8
BLACK
6
CONTINUOUS
10
86.5745
20
-50.9032
11
86.5922
21
-50.8828
0
LINE
8
BLACK
6
CONTINUOUS
10
86.5922
20
-50.8828
11
86.6068
21
-50.86
0
LINE
8
BLACK
6
CONTINUOUS
10
86.6068
20
-50.86
11
86.6153
21
-50.8562
0
LINE
8
BLACK
6
CONTINUOUS
10
86.6153
20
-50.8562
11
86.6213
21
-50.8492
0
LINE
8
BLACK
6
CONTINUOUS
10
86.6213
20
-50.8492
11
86.6473
21
-50.8415
0
LINE
8
BLACK
6
CONTINUOUS
10
86.6473
20
-50.8415
11
86.6719
21
-50.8303
0
LINE
8
BLACK
6
CONTINUOUS
10
86.6719
20
-50.8303
11
86.6811
21
-50.8316
0
LINE
8
BLACK
6
CONTINUOUS
10
86.6811
20
-50.8316
11
86.69
21
-50.829
0
LINE
8
BLACK
6
CONTINUOUS
10
86.69
20
-50.829
11
92.234
21
-50.829
0
LINE
8
BLACK
6
CONTINUOUS
10
92.234
20
-50.829
11
92.2698
21
-50.8341
0
LINE
8
BLACK
6
CONTINUOUS
10
207.686
20
-50.8341
11
207.694
21
-50.8392
0
LINE
8
BLACK
6
CONTINUOUS
10
207.694
20
-50.8392
11
207.703
21
-50.8405
0
LINE
8
BLACK
6
CONTINUOUS
10
207.703
20
-50.8405
11
207.723
21
-50.8582
0
LINE
8
BLACK
6
CONTINUOUS
10
207.723
20
-50.8582
11
207.746
21
-50.8728
0
LINE
8
BLACK
6
CONTINUOUS
10
207.746
20
-50.8728
11
207.75
21
-50.8813
0
LINE
8
BLACK
6
CONTINUOUS
10
207.75
20
-50.8813
11
207.757
21
-50.8873
0
LINE
8
BLACK
6
CONTINUOUS
10
207.757
20
-50.8873
11
207.764
21
-50.9133
0
LINE
8
BLACK
6
CONTINUOUS
10
207.764
20
-50.9133
11
207.776
21
-50.9379
0
LINE
8
BLACK
6
CONTINUOUS
10
207.776
20
-50.9379
11
207.774
21
-50.9471
0
LINE
8
BLACK
6
CONTINUOUS
10
207.774
20
-50.9471
11
207.777
21
-50.956
0
LINE
8
BLACK
6
CONTINUOUS
10
207.777
20
-50.956
11
207.777
21
-56.5
0
LINE
8
BLACK
6
CONTINUOUS
10
207.777
20
-56.5
11
207.772
21
-56.5358
0
LINE
8
BLACK
6
CONTINUOUS
10
207.772
20
-56.5358
11
207.733
21
-56.596
0
LINE
8
BLACK
6
CONTINUOUS
10
207.733
20
-56.596
11
207.668
21
-56.6257
0
LINE
8
BLACK
6
CONTINUOUS
10
207.668
20
-56.6257
11
207.597
21
-56.6155
0
LINE
8
BLACK
6
CONTINUOUS
10
207.597
20
-56.6155
11
207.543
21
-56.5687
0
LINE
8
BLACK
6
CONTINUOUS
10
207.543
20
-56.5687
11
207.523
21
-56.5
0
LINE
8
BLACK
6
CONTINUOUS
10
207.523
20
-56.5
11
207.523
21
-51.083
0
LINE
8
BLACK
6
CONTINUOUS
10
207.523
20
-51.083
11
201.098
21
-51.083
0
LINE
8
BLACK
6
CONTINUOUS
10
201.098
20
-51.083
11
201.062
21
-51.0779
0
LINE
8
BLACK
6
CONTINUOUS
10
201.062
20
-51.0779
11
201.002
21
-51.0392
0
LINE
8
BLACK
6
CONTINUOUS
10
201.002
20
-51.0392
11
200.972
21
-50.9741
0
LINE
8
BLACK
6
CONTINUOUS
10
200.972
20
-50.9741
11
200.982
21
-50.9032
0
LINE
8
BLACK
6
CONTINUOUS
10
200.982
20
-50.9032
11
201.029
21
-50.8492
0
LINE
8
BLACK
6
CONTINUOUS
10
201.029
20
-50.8492
11
201.098
21
-50.829
0
LINE
8
BLACK
6
CONTINUOUS
10
201.098
20
-50.829
11
207.65
21
-50.829
0
LINE
8
BLACK
6
CONTINUOUS
10
207.65
20
-50.829
11
207.686
21
-50.8341
0
LINE
8
BLACK
6
CONTINUOUS
10
212.832
20
-56.067
11
212.85
21
-56.1094
0
LINE
8
BLACK
6
CONTINUOUS
10
212.85
20
-56.1094
11
212.85
21
-56.3906
0
LINE
8
BLACK
6
CONTINUOUS
10
212.85
20
-56.3906
11
212.832
21
-56.433
0
LINE
8
BLACK
6
CONTINUOUS
10
212.832
20
-56.433
11
212.79
21
-56.4506
0
LINE
8
BLACK
6
CONTINUOUS
10
212.79
20
-56.4506
11
212.748
21
-56.433
0
LINE
8
BLACK
6
CONTINUOUS
10
212.748
20
-56.433
11
212.73
21
-56.3906
0
LINE
8
BLACK
6
CONTINUOUS
10
212.73
20
-56.3906
11
212.73
21
-56.1094
0
LINE
8
BLACK
6
CONTINUOUS
10
212.73
20
-56.1094
11
212.748
21
-56.067
0
LINE
8
BLACK
6
CONTINUOUS
10
212.748
20
-56.067
11
212.79
21
-56.0494
0
LINE
8
BLACK
6
CONTINUOUS
10
212.79
20
-56.0494
11
212.832
21
-56.067
0
LINE
8
BLACK
6
CONTINUOUS
10
213.852
20
-56.067
11
213.87
21
-56.1094
0
LINE
8
BLACK
6
CONTINUOUS
10
213.87
20
-56.1094
11
213.87
21
-56.3906
0
LINE
8
BLACK
6
CONTINUOUS
10
213.87
20
-56.3906
11
213.852
21
-56.433
0
LINE
8
BLACK
6
CONTINUOUS
10
213.852
20
-56.433
11
213.81
21
-56.4506
0
LINE
8
BLACK
6
CONTINUOUS
10
213.81
20
-56.4506
11
213.768
21
-56.433
0
LINE
8
BLACK
6
CONTINUOUS
10
213.768
20
-56.433
11
213.75
21
-56.3906
0
LINE
8
BLACK
6
CONTINUOUS
10
213.75
20
-56.3906
11
213.75
21
-56.1094
0
LINE
8
BLACK
6
CONTINUOUS
10
213.75
20
-56.1094
11
213.768
21
-56.067
0
LINE
8
BLACK
6
CONTINUOUS
10
213.768
20
-56.067
11
213.81
21
-56.0494
0
LINE
8
BLACK
6
CONTINUOUS
10
213.81
20
-56.0494
11
213.852
21
-56.067
0
LINE
8
BLACK
6
CONTINUOUS
10
99.933
20
-49.4676
11
99.9506
21
-49.51
0
LINE
8
BLACK
6
CONTINUOUS
10
99.9506
20
-49.51
11
99.933
21
-49.5524
0
LINE
8
BLACK
6
CONTINUOUS
10
99.933
20
-49.5524
11
99.8906
21
-49.57
0
LINE
8
BLACK
6
CONTINUOUS
10
99.8906
20
-49.57
11
99.6094
21
-49.57
0
LINE
8
BLACK
6
CONTINUOUS
10
99.6094
20
-49.57
11
99.567
21
-49.5524
0
LINE
8
BLACK
6
CONTINUOUS
10
99.567
20
-49.5524
11
99.5494
21
-49.51
0
LINE
8
BLACK
6
CONTINUOUS
10
99.5494
20
-49.51
11
99.567
21
-49.4676
0
LINE
8
BLACK
6
CONTINUOUS
10
99.567
20
-49.4676
11
99.6094
21
-49.45
0
LINE
8
BLACK
6
CONTINUOUS
10
99.6094
20
-49.45
11
99.8906
21
-49.45
0
LINE
8
BLACK
6
CONTINUOUS
10
99.8906
20
-49.45
11
99.933
21
-49.4676
0
LINE
8
BLACK
6
CONTINUOUS
10
149.933
20
-49.4676
11
149.951
21
-49.51
0
LINE
8
BLACK
6
CONTINUOUS
10
149.951
20
-49.51
11
149.933
21
-49.5524
0
LINE
8
BLACK
6
CONTINUOUS
10
149.933
20
-49.5524
11
149.891
21
-49.57
0
LINE
8
BLACK
6
CONTINUOUS
10
149.891
20
-49.57
11
149.609
21
-49.57
0
LINE
8
BLACK
6
CONTINUOUS
10
149.609
20
-49.57
11
149.567
21
-49.5524
0
LINE
8
BLACK
6
CONTINUOUS
10
149.567
20
-49.5524
11
149.549
21
-49.51
0
LINE
8
BLACK
6
CONTINUOUS
10
149.549
20
-49.51
11
149.567
21
-49.4676
0
LINE
8
BLACK
6
CONTINUOUS
10
149.567
20
-49.4676
11
149.609
21
-49.45
0
LINE
8
BLACK
6
CONTINUOUS
10
149.609
20
-49.45
11
149.891
21
-49.45
0
LINE
8
BLACK
6
CONTINUOUS
10
149.891
20
-49.45
11
149.933
21
-49.4676
0
LINE
8
BLACK
6
CONTINUOUS
10
110.183
20
-49.2176
11
110.201
21
-49.26
0
LINE
8
BLACK
6
CONTINUOUS
10
110.201
20
-49.26
11
110.183
21
-49.3024
0
LINE
8
BLACK
6
CONTINUOUS
10
110.183
20
-49.3024
11
110.141
21
-49.32
0
LINE
8
BLACK
6
CONTINUOUS
10
110.141
20
-49.32
11
109.859
21
-49.32
0
LINE
8
BLACK
6
CONTINUOUS
10
109.859
20
-49.32
11
109.817
21
-49.3024
0
LINE
8
BLACK
6
CONTINUOUS
10
109.817
20
-49.3024
11
109.799
21
-49.26
0
LINE
8
BLACK
6
CONTINUOUS
10
109.799
20
-49.26
11
109.817
21
-49.2176
0
LINE
8
BLACK
6
CONTINUOUS
10
109.817
20
-49.2176
11
109.859
21
-49.2
0
LINE
8
BLACK
6
CONTINUOUS
10
109.859
20
-49.2
11
110.141
21
-49.2
0
LINE
8
BLACK
6
CONTINUOUS
10
110.141
20
-49.2
11
110.183
21
-49.2176
0
LINE
8
BLACK
6
CONTINUOUS
10
119.933
20
-49.2176
11
119.951
21
-49.26
0
LINE
8
BLACK
6
CONTINUOUS
10
119.951
20
-49.26
11
119.933
21
-49.3024
0
LINE
8
BLACK
6
CONTINUOUS
10
119.933
20
-49.3024
11
119.891
21
-49.32
0
LINE
8
BLACK
6
CONTINUOUS
10
119.891
20
-49.32
11
119.609
21
-49.32
0
LINE
8
BLACK
6
CONTINUOUS
10
119.609
20
-49.32
11
119.567
21
-49.3024
0
LINE
8
BLACK
6
CONTINUOUS
10
119.567
20
-49.3024
11
119.549
21
-49.26
0
LINE
8
BLACK
6
CONTINUOUS
10
119.549
20
-49.26
11
119.567
21
-49.2176
0
LINE
8
BLACK
6
CONTINUOUS
10
119.567
20
-49.2176
11
119.609
21
-49.2
0
LINE
8
BLACK
6
CONTINUOUS
10
119.609
20
-49.2
11
119.891
21
-49.2
0
LINE
8
BLACK
6
CONTINUOUS
10
119.891
20
-49.2
11
119.933
21
-49.2176
0
LINE
8
BLACK
6
CONTINUOUS
10
129.933
20
-49.2176
11
129.951
21
-49.26
0
LINE
8
BLACK
6
CONTINUOUS
10
129.951
20
-49.26
11
129.933
21
-49.3024
0
LINE
8
BLACK
6
CONTINUOUS
10
129.933
20
-49.3024
11
129.891
21
-49.32
0
LINE
8
BLACK
6
CONTINUOUS
10
129.891
20
-49.32
11
129.609
21
-49.32
0
LINE
8
BLACK
6
CONTINUOUS
10
129.609
20
-49.32
11
129.567
21
-49.3024
0
LINE
8
BLACK
6
CONTINUOUS
10
129.567
20
-49.3024
11
129.549
21
-49.26
0
LINE
8
BLACK
6
CONTINUOUS
10
129.549
20
-49.26
11
129.567
21
-49.2176
0
LINE
8
BLACK
6
CONTINUOUS
10
129.567
20
-49.2176
11
129.609
21
-49.2
0
LINE
8
BLACK
6
CONTINUOUS
10
129.609
20
-49.2
11
129.891
21
-49.2
0
LINE
8
BLACK
6
CONTINUOUS
10
129.891
20
-49.2
11
129.933
21
-49.2176
0
LINE
8
BLACK
6
CONTINUOUS
10
139.933
20
-49.2176
11
139.951
21
-49.26
0
LINE
8
BLACK
6
CONTINUOUS
10
139.951
20
-49.26
11
139.933
21
-49.3024
0
LINE
8
BLACK
6
CONTINUOUS
10
139.933
20
-49.3024
11
139.891
21
-49.32
0
LINE
8
BLACK
6
CONTINUOUS
10
139.891
20
-49.32
11
139.609
21
-49.32
0
LINE
8
BLACK
6
CONTINUOUS
10
139.609
20
-49.32
11
139.567
21
-49.3024
0
LINE
8
BLACK
6
CONTINUOUS
10
139.567
20
-49.3024
11
139.549
21
-49.26
0
LINE
8
BLACK
6
CONTINUOUS
10
139.549
20
-49.26
11
139.567
21
-49.2176
0
LINE
8
BLACK
6
CONTINUOUS
10
139.567
20
-49.2176
11
139.609
21
-49.2
0
LINE
8
BLACK
6
CONTINUOUS
10
139.609
20
-49.2
11
139.891
21
-49.2
0
LINE
8
BLACK
6
CONTINUOUS
10
139.891
20
-49.2
11
139.933
21
-49.2176
0
LINE
8
BLACK
6
CONTINUOUS
10
159.933
20
-49.2176
11
159.951
21
-49.26
0
LINE
8
BLACK
6
CONTINUOUS
10
159.951
20
-49.26
11
159.933
21
-49.3024
0
LINE
8
BLACK
6
CONTINUOUS
10
159.933
20
-49.3024
11
159.891
21
-49.32
0
LINE
8
BLACK
6
CONTINUOUS
10
159.891
20
-49.32
11
159.609
21
-49.32
0
LINE
8
BLACK
6
CONTINUOUS
10
159.609
20
-49.32
11
159.567
21
-49.3024
0
LINE
8
BLACK
6
CONTINUOUS
10
159.567
20
-49.3024
11
159.549
21
-49.26
0
LINE
8
BLACK
6
CONTINUOUS
10
159.549
20
-49.26
11
159.567
21
-49.2176
0
LINE
8
BLACK
6
CONTINUOUS
10
159.567
20
-49.2176
11
159.609
21
-49.2
0
LINE
8
BLACK
6
CONTINUOUS
10
159.609
20
-49.2
11
159.891
21
-49.2
0
LINE
8
BLACK
6
CONTINUOUS
10
159.891
20
-49.2
11
159.933
21
-49.2176
0
LINE
8
BLACK
6
CONTINUOUS
10
169.933
20
-49.2176
11
169.951
21
-49.26
0
LINE
8
BLACK
6
CONTINUOUS
10
169.951
20
-49.26
11
169.933
21
-49.3024
0
LINE
8
BLACK
6
CONTINUOUS
10
169.933
20
-49.3024
11
169.891
21
-49.32
0
LINE
8
BLACK
6
CONTINUOUS
10
169.891
20
-49.32
11
169.609
21
-49.32
0
LINE
8
BLACK
6
CONTINUOUS
10
169.609
20
-49.32
11
169.567
21
-49.3024
0
LINE
8
BLACK
6
CONTINUOUS
10
169.567
20
-49.3024
11
169.549
21
-49.26
0
LINE
8
BLACK
6
CONTINUOUS
10
169.549
20
-49.26
11
169.567
21
-49.2176
0
LINE
8
BLACK
6
CONTINUOUS
10
169.567
20
-49.2176
11
169.609
21
-49.2
0
LINE
8
BLACK
6
CONTINUOUS
10
169.609
20
-49.2
11
169.891
21
-49.2
0
LINE
8
BLACK
6
CONTINUOUS
10
169.891
20
-49.2
11
169.933
21
-49.2176
0
LINE
8
BLACK
6
CONTINUOUS
10
179.933
20
-49.2176
11
179.951
21
-49.26
0
LINE
8
BLACK
6
CONTINUOUS
10
179.951
20
-49.26
11
179.933
21
-49.3024
0
LINE
8
BLACK
6
CONTINUOUS
10
179.933
20
-49.3024
11
179.891
21
-49.32
0
LINE
8
BLACK
6
CONTINUOUS
10
179.891
20
-49.32
11
179.609
21
-49.32
0
LINE
8
BLACK
6
CONTINUOUS
10
179.609
20
-49.32
11
179.567
21
-49.3024
0
LINE
8
BLACK
6
CONTINUOUS
10
179.567
20
-49.3024
11
179.549
21
-49.26
0
LINE
8
BLACK
6
CONTINUOUS
10
179.549
20
-49.26
11
179.567
21
-49.2176
0
LINE
8
BLACK
6
CONTINUOUS
10
179.567
20
-49.2176
11
179.609
21
-49.2
0
LINE
8
BLACK
6
CONTINUOUS
10
179.609
20
-49.2
11
179.891
21
-49.2
0
LINE
8
BLACK
6
CONTINUOUS
10
179.891
20
-49.2
11
179.933
21
-49.2176
0
LINE
8
BLACK
6
CONTINUOUS
10
189.933
20
-49.2176
11
189.951
21
-49.26
0
LINE
8
BLACK
6
CONTINUOUS
10
189.951
20
-49.26
11
189.933
21
-49.3024
0
LINE
8
BLACK
6
CONTINUOUS
10
189.933
20
-49.3024
11
189.891
21
-49.32
0
LINE
8
BLACK
6
CONTINUOUS
10
189.891
20
-49.32
11
189.609
21
-49.32
0
LINE
8
BLACK
6
CONTINUOUS
10
189.609
20
-49.32
11
189.567
21
-49.3024
0
LINE
8
BLACK
6
CONTINUOUS
10
189.567
20
-49.3024
11
189.549
21
-49.26
0
LINE
8
BLACK
6
CONTINUOUS
10
189.549
20
-49.26
11
189.567
21
-49.2176
0
LINE
8
BLACK
6
CONTINUOUS
10
189.567
20
-49.2176
11
189.609
21
-49.2
0
LINE
8
BLACK
6
CONTINUOUS
10
189.609
20
-49.2
11
189.891
21
-49.2
0
LINE
8
BLACK
6
CONTINUOUS
10
189.891
20
-49.2
11
189.933
21
-49.2176
0
LINE
8
BLACK
6
CONTINUOUS
10
99.933
20
-48.4476
11
99.9506
21
-48.49
0
LINE
8
BLACK
6
CONTINUOUS
10
99.9506
20
-48.49
11
99.933
21
-48.5324
0
LINE
8
BLACK
6
CONTINUOUS
10
99.933
20
-48.5324
11
99.8906
21
-48.55
0
LINE
8
BLACK
6
CONTINUOUS
10
99.8906
20
-48.55
11
99.6094
21
-48.55
0
LINE
8
BLACK
6
CONTINUOUS
10
99.6094
20
-48.55
11
99.567
21
-48.5324
0
LINE
8
BLACK
6
CONTINUOUS
10
99.567
20
-48.5324
11
99.5494
21
-48.49
0
LINE
8
BLACK
6
CONTINUOUS
10
99.5494
20
-48.49
11
99.567
21
-48.4476
0
LINE
8
BLACK
6
CONTINUOUS
10
99.567
20
-48.4476
11
99.6094
21
-48.43
0
LINE
8
BLACK
6
CONTINUOUS
10
99.6094
20
-48.43
11
99.8906
21
-48.43
0
LINE
8
BLACK
6
CONTINUOUS
10
99.8906
20
-48.43
11
99.933
21
-48.4476
0
LINE
8
BLACK
6
CONTINUOUS
10
149.933
20
-48.4476
11
149.951
21
-48.49
0
LINE
8
BLACK
6
CONTINUOUS
10
149.951
20
-48.49
11
149.933
21
-48.5324
0
LINE
8
BLACK
6
CONTINUOUS
10
149.933
20
-48.5324
11
149.891
21
-48.55
0
LINE
8
BLACK
6
CONTINUOUS
10
149.891
20
-48.55
11
149.609
21
-48.55
0
LINE
8
BLACK
6
CONTINUOUS
10
149.609
20
-48.55
11
149.567
21
-48.5324
0
LINE
8
BLACK
6
CONTINUOUS
10
149.567
20
-48.5324
11
149.549
21
-48.49
0
LINE
8
BLACK
6
CONTINUOUS
10
149.549
20
-48.49
11
149.567
21
-48.4476
0
LINE
8
BLACK
6
CONTINUOUS
10
149.567
20
-48.4476
11
149.609
21
-48.43
0
LINE
8
BLACK
6
CONTINUOUS
10
149.609
20
-48.43
11
149.891
21
-48.43
0
LINE
8
BLACK
6
CONTINUOUS
10
149.891
20
-48.43
11
149.933
21
-48.4476
0
LINE
8
BLACK
6
CONTINUOUS
10
110.183
20
-48.1976
11
110.201
21
-48.24
0
LINE
8
BLACK
6
CONTINUOUS
10
110.201
20
-48.24
11
110.183
21
-48.2824
0
LINE
8
BLACK
6
CONTINUOUS
10
110.183
20
-48.2824
11
110.141
21
-48.3
0
LINE
8
BLACK
6
CONTINUOUS
10
110.141
20
-48.3
11
109.859
21
-48.3
0
LINE
8
BLACK
6
CONTINUOUS
10
109.859
20
-48.3
11
109.817
21
-48.2824
0
LINE
8
BLACK
6
CONTINUOUS
10
109.817
20
-48.2824
11
109.799
21
-48.24
0
LINE
8
BLACK
6
CONTINUOUS
10
109.799
20
-48.24
11
109.817
21
-48.1976
0
LINE
8
BLACK
6
CONTINUOUS
10
109.817
20
-48.1976
11
109.859
21
-48.18
0
LINE
8
BLACK
6
CONTINUOUS
10
109.859
20
-48.18
11
110.141
21
-48.18
0
LINE
8
BLACK
6
CONTINUOUS
10
110.141
20
-48.18
11
110.183
21
-48.1976
0
LINE
8
BLACK
6
CONTINUOUS
10
119.933
20
-48.1976
11
119.951
21
-48.24
0
LINE
8
BLACK
6
CONTINUOUS
10
119.951
20
-48.24
11
119.933
21
-48.2824
0
LINE
8
BLACK
6
CONTINUOUS
10
119.933
20
-48.2824
11
119.891
21
-48.3
0
LINE
8
BLACK
6
CONTINUOUS
10
119.891
20
-48.3
11
119.609
21
-48.3
0
LINE
8
BLACK
6
CONTINUOUS
10
119.609
20
-48.3
11
119.567
21
-48.2824
0
LINE
8
BLACK
6
CONTINUOUS
10
119.567
20
-48.2824
11
119.549
21
-48.24
0
LINE
8
BLACK
6
CONTINUOUS
10
119.549
20
-48.24
11
119.567
21
-48.1976
0
LINE
8
BLACK
6
CONTINUOUS
10
119.567
20
-48.1976
11
119.609
21
-48.18
0
LINE
8
BLACK
6
CONTINUOUS
10
119.609
20
-48.18
11
119.891
21
-48.18
0
LINE
8
BLACK
6
CONTINUOUS
10
119.891
20
-48.18
11
119.933
21
-48.1976
0
LINE
8
BLACK
6
CONTINUOUS
10
129.933
20
-48.1976
11
129.951
21
-48.24
0
LINE
8
BLACK
6
CONTINUOUS
10
129.951
20
-48.24
11
129.933
21
-48.2824
0
LINE
8
BLACK
6
CONTINUOUS
10
129.933
20
-48.2824
11
129.891
21
-48.3
0
LINE
8
BLACK
6
CONTINUOUS
10
129.891
20
-48.3
11
129.609
21
-48.3
0
LINE
8
BLACK
6
CONTINUOUS
10
129.609
20
-48.3
11
129.567
21
-48.2824
0
LINE
8
BLACK
6
CONTINUOUS
10
129.567
20
-48.2824
11
129.549
21
-48.24
0
LINE
8
BLACK
6
CONTINUOUS
10
129.549
20
-48.24
11
129.567
21
-48.1976
0
LINE
8
BLACK
6
CONTINUOUS
10
129.567
20
-48.1976
11
129.609
21
-48.18
0
LINE
8
BLACK
6
CONTINUOUS
10
129.609
20
-48.18
11
129.891
21
-48.18
0
LINE
8
BLACK
6
CONTINUOUS
10
129.891
20
-48.18
11
129.933
21
-48.1976
0
LINE
8
BLACK
6
CONTINUOUS
10
139.933
20
-48.1976
11
139.951
21
-48.24
0
LINE
8
BLACK
6
CONTINUOUS
10
139.951
20
-48.24
11
139.933
21
-48.2824
0
LINE
8
BLACK
6
CONTINUOUS
10
139.933
20
-48.2824
11
139.891
21
-48.3
0
LINE
8
BLACK
6
CONTINUOUS
10
139.891
20
-48.3
11
139.609
21
-48.3
0
LINE
8
BLACK
6
CONTINUOUS
10
139.609
20
-48.3
11
139.567
21
-48.2824
0
LINE
8
BLACK
6
CONTINUOUS
10
139.567
20
-48.2824
11
139.549
21
-48.24
0
LINE
8
BLACK
6
CONTINUOUS
10
139.549
20
-48.24
11
139.567
21
-48.1976
0
LINE
8
BLACK
6
CONTINUOUS
10
139.567
20
-48.1976
11
139.609
21
-48.18
0
LINE
8
BLACK
6
CONTINUOUS
10
139.609
20
-48.18
11
139.891
21
-48.18
0
LINE
8
BLACK
6
CONTINUOUS
10
139.891
20
-48.18
11
139.933
21
-48.1976
0
LINE
8
BLACK
6
CONTINUOUS
10
159.933
20
-48.1976
11
159.951
21
-48.24
0
LINE
8
BLACK
6
CONTINUOUS
10
159.951
20
-48.24
11
159.933
21
-48.2824
0
LINE
8
BLACK
6
CONTINUOUS
10
159.933
20
-48.2824
11
159.891
21
-48.3
0
LINE
8
BLACK
6
CONTINUOUS
10
159.891
20
-48.3
11
159.609
21
-48.3
0
LINE
8
BLACK
6
CONTINUOUS
10
159.609
20
-48.3
11
159.567
21
-48.2824
0
LINE
8
BLACK
6
CONTINUOUS
10
159.567
20
-48.2824
11
159.549
21
-48.24
0
LINE
8
BLACK
6
CONTINUOUS
10
159.549
20
-48.24
11
159.567
21
-48.1976
0
LINE
8
BLACK
6
CONTINUOUS
10
159.567
20
-48.1976
11
159.609
21
-48.18
0
LINE
8
BLACK
6
CONTINUOUS
10
159.609
20
-48.18
11
159.891
21
-48.18
0
LINE
8
BLACK
6
CONTINUOUS
10
159.891
20
-48.18
11
159.933
21
-48.1976
0
LINE
8
BLACK
6
CONTINUOUS
10
169.933
20
-48.1976
11
169.951
21
-48.24
0
LINE
8
BLACK
6
CONTINUOUS
10
169.951
20
-48.24
11
169.933
21
-48.2824
0
LINE
8
BLACK
6
CONTINUOUS
10
169.933
20
-48.2824
11
169.891
21
-48.3
0
LINE
8
BLACK
6
CONTINUOUS
10
169.891
20
-48.3
11
169.609
21
-48.3
0
LINE
8
BLACK
6
CONTINUOUS
10
169.609
20
-48.3
11
169.567
21
-48.2824
0
LINE
8
BLACK
6
CONTINUOUS
10
169.567
20
-48.2824
11
169.549
21
-48.24
0
LINE
8
BLACK
6
CONTINUOUS
10
169.549
20
-48.24
11
169.567
21
-48.1976
0
LINE
8
BLACK
6
CONTINUOUS
10
169.567
20
-48.1976
11
169.609
21
-48.18
0
LINE
8
BLACK
6
CONTINUOUS
10
169.609
20
-48.18
11
169.891
21
-48.18
0
LINE
8
BLACK
6
CONTINUOUS
10
169.891
20
-48.18
11
169.933
21
-48.1976
0
LINE
8
BLACK
6
CONTINUOUS
10
179.933
20
-48.1976
11
179.951
21
-48.24
0
LINE
8
BLACK
6
CONTINUOUS
10
179.951
20
-48.24
11
179.933
21
-48.2824
0
LINE
8
BLACK
6
CONTINUOUS
10
179.933
20
-48.2824
11
179.891
21
-48.3
0
LINE
8
BLACK
6
CONTINUOUS
10
179.891
20
-48.3
11
179.609
21
-48.3
0
LINE
8
BLACK
6
CONTINUOUS
10
179.609
20
-48.3
11
179.567
21
-48.2824
0
LINE
8
BLACK
6
CONTINUOUS
10
179.567
20
-48.2824
11
179.549
21
-48.24
0
LINE
8
BLACK
6
CONTINUOUS
10
179.549
20
-48.24
11
179.567
21
-48.1976
0
LINE
8
BLACK
6
CONTINUOUS
10
179.567
20
-48.1976
11
179.609
21
-48.18
0
LINE
8
BLACK
6
CONTINUOUS
10
179.609
20
-48.18
11
179.891
21
-48.18
0
LINE
8
BLACK
6
CONTINUOUS
10
179.891
20
-48.18
11
179.933
21
-48.1976
0
LINE
8
BLACK
6
CONTINUOUS
10
189.933
20
-48.1976
11
189.951
21
-48.24
0
LINE
8
BLACK
6
CONTINUOUS
10
189.951
20
-48.24
11
189.933
21
-48.2824
0
LINE
8
BLACK
6
CONTINUOUS
10
189.933
20
-48.2824
11
189.891
21
-48.3
0
LINE
8
BLACK
6
CONTINUOUS
10
189.891
20
-48.3
11
189.609
21
-48.3
0
LINE
8
BLACK
6
CONTINUOUS
10
189.609
20
-48.3
11
189.567
21
-48.2824
0
LINE
8
BLACK
6
CONTINUOUS
10
189.567
20
-48.2824
11
189.549
21
-48.24
0
LINE
8
BLACK
6
CONTINUOUS
10
189.549
20
-48.24
11
189.567
21
-48.1976
0
LINE
8
BLACK
6
CONTINUOUS
10
189.567
20
-48.1976
11
189.609
21
-48.18
0
LINE
8
BLACK
6
CONTINUOUS
10
189.609
20
-48.18
11
189.891
21
-48.18
0
LINE
8
BLACK
6
CONTINUOUS
10
189.891
20
-48.18
11
189.933
21
-48.1976
0
LINE
8
BLACK
6
CONTINUOUS
10
114.542
20
-47.7376
11
114.56
21
-47.78
0
LINE
8
BLACK
6
CONTINUOUS
10
114.56
20
-47.78
11
114.542
21
-47.8224
0
LINE
8
BLACK
6
CONTINUOUS
10
114.542
20
-47.8224
11
114.5
21
-47.84
0
LINE
8
BLACK
6
CONTINUOUS
10
114.5
20
-47.84
11
109.5
21
-47.84
0
LINE
8
BLACK
6
CONTINUOUS
10
109.5
20
-47.84
11
109.458
21
-47.8224
0
LINE
8
BLACK
6
CONTINUOUS
10
109.458
20
-47.8224
11
109.44
21
-47.78
0
LINE
8
BLACK
6
CONTINUOUS
10
109.44
20
-47.78
11
109.458
21
-47.7376
0
LINE
8
BLACK
6
CONTINUOUS
10
109.458
20
-47.7376
11
109.5
21
-47.72
0
LINE
8
BLACK
6
CONTINUOUS
10
109.5
20
-47.72
11
114.5
21
-47.72
0
LINE
8
BLACK
6
CONTINUOUS
10
114.5
20
-47.72
11
114.542
21
-47.7376
0
LINE
8
BLACK
6
CONTINUOUS
10
104.542
20
-47.7276
11
104.56
21
-47.77
0
LINE
8
BLACK
6
CONTINUOUS
10
104.56
20
-47.77
11
104.542
21
-47.8124
0
LINE
8
BLACK
6
CONTINUOUS
10
104.542
20
-47.8124
11
104.5
21
-47.83
0
LINE
8
BLACK
6
CONTINUOUS
10
104.5
20
-47.83
11
99.5
21
-47.83
0
LINE
8
BLACK
6
CONTINUOUS
10
99.5
20
-47.83
11
99.4576
21
-47.8124
0
LINE
8
BLACK
6
CONTINUOUS
10
99.4576
20
-47.8124
11
99.44
21
-47.77
0
LINE
8
BLACK
6
CONTINUOUS
10
99.44
20
-47.77
11
99.4576
21
-47.7276
0
LINE
8
BLACK
6
CONTINUOUS
10
99.4576
20
-47.7276
11
99.5
21
-47.71
0
LINE
8
BLACK
6
CONTINUOUS
10
99.5
20
-47.71
11
104.5
21
-47.71
0
LINE
8
BLACK
6
CONTINUOUS
10
104.5
20
-47.71
11
104.542
21
-47.7276
0
LINE
8
BLACK
6
CONTINUOUS
10
124.532
20
-47.7076
11
124.55
21
-47.75
0
LINE
8
BLACK
6
CONTINUOUS
10
124.55
20
-47.75
11
124.532
21
-47.7924
0
LINE
8
BLACK
6
CONTINUOUS
10
124.532
20
-47.7924
11
124.49
21
-47.81
0
LINE
8
BLACK
6
CONTINUOUS
10
124.49
20
-47.81
11
119.49
21
-47.81
0
LINE
8
BLACK
6
CONTINUOUS
10
119.49
20
-47.81
11
119.448
21
-47.7924
0
LINE
8
BLACK
6
CONTINUOUS
10
119.448
20
-47.7924
11
119.43
21
-47.75
0
LINE
8
BLACK
6
CONTINUOUS
10
119.43
20
-47.75
11
119.448
21
-47.7076
0
LINE
8
BLACK
6
CONTINUOUS
10
119.448
20
-47.7076
11
119.49
21
-47.69
0
LINE
8
BLACK
6
CONTINUOUS
10
119.49
20
-47.69
11
124.49
21
-47.69
0
LINE
8
BLACK
6
CONTINUOUS
10
124.49
20
-47.69
11
124.532
21
-47.7076
0
LINE
8
BLACK
6
CONTINUOUS
10
134.542
20
-47.7076
11
134.56
21
-47.75
0
LINE
8
BLACK
6
CONTINUOUS
10
134.56
20
-47.75
11
134.542
21
-47.7924
0
LINE
8
BLACK
6
CONTINUOUS
10
134.542
20
-47.7924
11
134.5
21
-47.81
0
LINE
8
BLACK
6
CONTINUOUS
10
134.5
20
-47.81
11
129.5
21
-47.81
0
LINE
8
BLACK
6
CONTINUOUS
10
129.5
20
-47.81
11
129.458
21
-47.7924
0
LINE
8
BLACK
6
CONTINUOUS
10
129.458
20
-47.7924
11
129.44
21
-47.75
0
LINE
8
BLACK
6
CONTINUOUS
10
129.44
20
-47.75
11
129.458
21
-47.7076
0
LINE
8
BLACK
6
CONTINUOUS
10
129.458
20
-47.7076
11
129.5
21
-47.69
0
LINE
8
BLACK
6
CONTINUOUS
10
129.5
20
-47.69
11
134.5
21
-47.69
0
LINE
8
BLACK
6
CONTINUOUS
10
134.5
20
-47.69
11
134.542
21
-47.7076
0
LINE
8
BLACK
6
CONTINUOUS
10
144.502
20
-47.6976
11
144.52
21
-47.74
0
LINE
8
BLACK
6
CONTINUOUS
10
144.52
20
-47.74
11
144.502
21
-47.7824
0
LINE
8
BLACK
6
CONTINUOUS
10
144.502
20
-47.7824
11
144.46
21
-47.8
0
LINE
8
BLACK
6
CONTINUOUS
10
144.46
20
-47.8
11
139.46
21
-47.8
0
LINE
8
BLACK
6
CONTINUOUS
10
139.46
20
-47.8
11
139.418
21
-47.7824
0
LINE
8
BLACK
6
CONTINUOUS
10
139.418
20
-47.7824
11
139.4
21
-47.74
0
LINE
8
BLACK
6
CONTINUOUS
10
139.4
20
-47.74
11
139.418
21
-47.6976
0
LINE
8
BLACK
6
CONTINUOUS
10
139.418
20
-47.6976
11
139.46
21
-47.68
0
LINE
8
BLACK
6
CONTINUOUS
10
139.46
20
-47.68
11
144.46
21
-47.68
0
LINE
8
BLACK
6
CONTINUOUS
10
144.46
20
-47.68
11
144.502
21
-47.6976
0
LINE
8
BLACK
6
CONTINUOUS
10
164.492
20
-47.6876
11
164.51
21
-47.73
0
LINE
8
BLACK
6
CONTINUOUS
10
164.51
20
-47.73
11
164.492
21
-47.7724
0
LINE
8
BLACK
6
CONTINUOUS
10
164.492
20
-47.7724
11
164.45
21
-47.79
0
LINE
8
BLACK
6
CONTINUOUS
10
164.45
20
-47.79
11
159.45
21
-47.79
0
LINE
8
BLACK
6
CONTINUOUS
10
159.45
20
-47.79
11
159.408
21
-47.7724
0
LINE
8
BLACK
6
CONTINUOUS
10
159.408
20
-47.7724
11
159.39
21
-47.73
0
LINE
8
BLACK
6
CONTINUOUS
10
159.39
20
-47.73
11
159.408
21
-47.6876
0
LINE
8
BLACK
6
CONTINUOUS
10
159.408
20
-47.6876
11
159.45
21
-47.67
0
LINE
8
BLACK
6
CONTINUOUS
10
159.45
20
-47.67
11
164.45
21
-47.67
0
LINE
8
BLACK
6
CONTINUOUS
10
164.45
20
-47.67
11
164.492
21
-47.6876
0
LINE
8
BLACK
6
CONTINUOUS
10
154.512
20
-47.6776
11
154.53
21
-47.72
0
LINE
8
BLACK
6
CONTINUOUS
10
154.53
20
-47.72
11
154.512
21
-47.7624
0
LINE
8
BLACK
6
CONTINUOUS
10
154.512
20
-47.7624
11
154.47
21
-47.78
0
LINE
8
BLACK
6
CONTINUOUS
10
154.47
20
-47.78
11
149.47
21
-47.78
0
LINE
8
BLACK
6
CONTINUOUS
10
149.47
20
-47.78
11
149.428
21
-47.7624
0
LINE
8
BLACK
6
CONTINUOUS
10
149.428
20
-47.7624
11
149.41
21
-47.72
0
LINE
8
BLACK
6
CONTINUOUS
10
149.41
20
-47.72
11
149.428
21
-47.6776
0
LINE
8
BLACK
6
CONTINUOUS
10
149.428
20
-47.6776
11
149.47
21
-47.66
0
LINE
8
BLACK
6
CONTINUOUS
10
149.47
20
-47.66
11
154.47
21
-47.66
0
LINE
8
BLACK
6
CONTINUOUS
10
154.47
20
-47.66
11
154.512
21
-47.6776
0
LINE
8
BLACK
6
CONTINUOUS
10
174.482
20
-47.6776
11
174.5
21
-47.72
0
LINE
8
BLACK
6
CONTINUOUS
10
174.5
20
-47.72
11
174.482
21
-47.7624
0
LINE
8
BLACK
6
CONTINUOUS
10
174.482
20
-47.7624
11
174.44
21
-47.78
0
LINE
8
BLACK
6
CONTINUOUS
10
174.44
20
-47.78
11
169.44
21
-47.78
0
LINE
8
BLACK
6
CONTINUOUS
10
169.44
20
-47.78
11
169.398
21
-47.7624
0
LINE
8
BLACK
6
CONTINUOUS
10
169.398
20
-47.7624
11
169.38
21
-47.72
0
LINE
8
BLACK
6
CONTINUOUS
10
169.38
20
-47.72
11
169.398
21
-47.6776
0
LINE
8
BLACK
6
CONTINUOUS
10
169.398
20
-47.6776
11
169.44
21
-47.66
0
LINE
8
BLACK
6
CONTINUOUS
10
169.44
20
-47.66
11
174.44
21
-47.66
0
LINE
8
BLACK
6
CONTINUOUS
10
174.44
20
-47.66
11
174.482
21
-47.6776
0
LINE
8
BLACK
6
CONTINUOUS
10
194.452
20
-47.6776
11
194.47
21
-47.72
0
LINE
8
BLACK
6
CONTINUOUS
10
194.47
20
-47.72
11
194.452
21
-47.7624
0
LINE
8
BLACK
6
CONTINUOUS
10
194.452
20
-47.7624
11
194.41
21
-47.78
0
LINE
8
BLACK
6
CONTINUOUS
10
194.41
20
-47.78
11
189.41
21
-47.78
0
LINE
8
BLACK
6
CONTINUOUS
10
189.41
20
-47.78
11
189.368
21
-47.7624
0
LINE
8
BLACK
6
CONTINUOUS
10
189.368
20
-47.7624
11
189.35
21
-47.72
0
LINE
8
BLACK
6
CONTINUOUS
10
189.35
20
-47.72
11
189.368
21
-47.6776
0
LINE
8
BLACK
6
CONTINUOUS
10
189.368
20
-47.6776
11
189.41
21
-47.66
0
LINE
8
BLACK
6
CONTINUOUS
10
189.41
20
-47.66
11
194.41
21
-47.66
0
LINE
8
BLACK
6
CONTINUOUS
10
194.41
20
-47.66
11
194.452
21
-47.6776
0
LINE
8
BLACK
6
CONTINUOUS
10
184.452
20
-47.6676
11
184.47
21
-47.71
0
LINE
8
BLACK
6
CONTINUOUS
10
184.47
20
-47.71
11
184.452
21
-47.7524
0
LINE
8
BLACK
6
CONTINUOUS
10
184.452
20
-47.7524
11
184.41
21
-47.77
0
LINE
8
BLACK
6
CONTINUOUS
10
184.41
20
-47.77
11
179.41
21
-47.77
0
LINE
8
BLACK
6
CONTINUOUS
10
179.41
20
-47.77
11
179.368
21
-47.7524
0
LINE
8
BLACK
6
CONTINUOUS
10
179.368
20
-47.7524
11
179.35
21
-47.71
0
LINE
8
BLACK
6
CONTINUOUS
10
179.35
20
-47.71
11
179.368
21
-47.6676
0
LINE
8
BLACK
6
CONTINUOUS
10
179.368
20
-47.6676
11
179.41
21
-47.65
0
LINE
8
BLACK
6
CONTINUOUS
10
179.41
20
-47.65
11
184.41
21
-47.65
0
LINE
8
BLACK
6
CONTINUOUS
10
184.41
20
-47.65
11
184.452
21
-47.6676
0
LINE
8
BLACK
6
CONTINUOUS
10
115.6
20
-42.32
11
115.642
21
-42.3376
0
LINE
8
BLACK
6
CONTINUOUS
10
115.642
20
-42.3376
11
115.66
21
-42.38
0
LINE
8
BLACK
6
CONTINUOUS
10
115.66
20
-42.38
11
115.66
21
-43.48
0
LINE
8
BLACK
6
CONTINUOUS
10
115.66
20
-43.48
11
115.642
21
-43.5224
0
LINE
8
BLACK
6
CONTINUOUS
10
115.642
20
-43.5224
11
115.6
21
-43.54
0
LINE
8
BLACK
6
CONTINUOUS
10
115.6
20
-43.54
11
115.558
21
-43.5224
0
LINE
8
BLACK
6
CONTINUOUS
10
115.558
20
-43.5224
11
115.54
21
-43.48
0
LINE
8
BLACK
6
CONTINUOUS
10
115.54
20
-43.48
11
115.54
21
-42.44
0
LINE
8
BLACK
6
CONTINUOUS
10
115.54
20
-42.44
11
109.5
21
-42.44
0
LINE
8
BLACK
6
CONTINUOUS
10
109.5
20
-42.44
11
109.458
21
-42.4224
0
LINE
8
BLACK
6
CONTINUOUS
10
109.458
20
-42.4224
11
109.44
21
-42.38
0
LINE
8
BLACK
6
CONTINUOUS
10
109.44
20
-42.38
11
109.458
21
-42.3376
0
LINE
8
BLACK
6
CONTINUOUS
10
109.458
20
-42.3376
11
109.5
21
-42.32
0
LINE
8
BLACK
6
CONTINUOUS
10
109.5
20
-42.32
11
115.6
21
-42.32
0
LINE
8
BLACK
6
CONTINUOUS
10
105.6
20
-42.31
11
105.642
21
-42.3276
0
LINE
8
BLACK
6
CONTINUOUS
10
105.642
20
-42.3276
11
105.66
21
-42.37
0
LINE
8
BLACK
6
CONTINUOUS
10
105.66
20
-42.37
11
105.66
21
-43.47
0
LINE
8
BLACK
6
CONTINUOUS
10
105.66
20
-43.47
11
105.642
21
-43.5124
0
LINE
8
BLACK
6
CONTINUOUS
10
105.642
20
-43.5124
11
105.6
21
-43.53
0
LINE
8
BLACK
6
CONTINUOUS
10
105.6
20
-43.53
11
105.558
21
-43.5124
0
LINE
8
BLACK
6
CONTINUOUS
10
105.558
20
-43.5124
11
105.54
21
-43.47
0
LINE
8
BLACK
6
CONTINUOUS
10
105.54
20
-43.47
11
105.54
21
-42.43
0
LINE
8
BLACK
6
CONTINUOUS
10
105.54
20
-42.43
11
99.5
21
-42.43
0
LINE
8
BLACK
6
CONTINUOUS
10
99.5
20
-42.43
11
99.4576
21
-42.4124
0
LINE
8
BLACK
6
CONTINUOUS
10
99.4576
20
-42.4124
11
99.44
21
-42.37
0
LINE
8
BLACK
6
CONTINUOUS
10
99.44
20
-42.37
11
99.4576
21
-42.3276
0
LINE
8
BLACK
6
CONTINUOUS
10
99.4576
20
-42.3276
11
99.5
21
-42.31
0
LINE
8
BLACK
6
CONTINUOUS
10
99.5
20
-42.31
11
105.6
21
-42.31
0
LINE
8
BLACK
6
CONTINUOUS
10
125.59
20
-42.29
11
125.632
21
-42.3076
0
LINE
8
BLACK
6
CONTINUOUS
10
125.632
20
-42.3076
11
125.65
21
-42.35
0
LINE
8
BLACK
6
CONTINUOUS
10
125.65
20
-42.35
11
125.65
21
-43.45
0
LINE
8
BLACK
6
CONTINUOUS
10
125.65
20
-43.45
11
125.632
21
-43.4924
0
LINE
8
BLACK
6
CONTINUOUS
10
125.632
20
-43.4924
11
125.59
21
-43.51
0
LINE
8
BLACK
6
CONTINUOUS
10
125.59
20
-43.51
11
125.548
21
-43.4924
0
LINE
8
BLACK
6
CONTINUOUS
10
125.548
20
-43.4924
11
125.53
21
-43.45
0
LINE
8
BLACK
6
CONTINUOUS
10
125.53
20
-43.45
11
125.53
21
-42.41
0
LINE
8
BLACK
6
CONTINUOUS
10
125.53
20
-42.41
11
119.49
21
-42.41
0
LINE
8
BLACK
6
CONTINUOUS
10
119.49
20
-42.41
11
119.448
21
-42.3924
0
LINE
8
BLACK
6
CONTINUOUS
10
119.448
20
-42.3924
11
119.43
21
-42.35
0
LINE
8
BLACK
6
CONTINUOUS
10
119.43
20
-42.35
11
119.448
21
-42.3076
0
LINE
8
BLACK
6
CONTINUOUS
10
119.448
20
-42.3076
11
119.49
21
-42.29
0
LINE
8
BLACK
6
CONTINUOUS
10
119.49
20
-42.29
11
125.59
21
-42.29
0
LINE
8
BLACK
6
CONTINUOUS
10
135.6
20
-42.29
11
135.642
21
-42.3076
0
LINE
8
BLACK
6
CONTINUOUS
10
135.642
20
-42.3076
11
135.66
21
-42.35
0
LINE
8
BLACK
6
CONTINUOUS
10
135.66
20
-42.35
11
135.66
21
-43.45
0
LINE
8
BLACK
6
CONTINUOUS
10
135.66
20
-43.45
11
135.642
21
-43.4924
0
LINE
8
BLACK
6
CONTINUOUS
10
135.642
20
-43.4924
11
135.6
21
-43.51
0
LINE
8
BLACK
6
CONTINUOUS
10
135.6
20
-43.51
11
135.558
21
-43.4924
0
LINE
8
BLACK
6
CONTINUOUS
10
135.558
20
-43.4924
11
135.54
21
-43.45
0
LINE
8
BLACK
6
CONTINUOUS
10
135.54
20
-43.45
11
135.54
21
-42.41
0
LINE
8
BLACK
6
CONTINUOUS
10
135.54
20
-42.41
11
129.5
21
-42.41
0
LINE
8
BLACK
6
CONTINUOUS
10
129.5
20
-42.41
11
129.458
21
-42.3924
0
LINE
8
BLACK
6
CONTINUOUS
10
129.458
20
-42.3924
11
129.44
21
-42.35
0
LINE
8
BLACK
6
CONTINUOUS
10
129.44
20
-42.35
11
129.458
21
-42.3076
0
LINE
8
BLACK
6
CONTINUOUS
10
129.458
20
-42.3076
11
129.5
21
-42.29
0
LINE
8
BLACK
6
CONTINUOUS
10
129.5
20
-42.29
11
135.6
21
-42.29
0
LINE
8
BLACK
6
CONTINUOUS
10
145.56
20
-42.28
11
145.602
21
-42.2976
0
LINE
8
BLACK
6
CONTINUOUS
10
145.602
20
-42.2976
11
145.62
21
-42.34
0
LINE
8
BLACK
6
CONTINUOUS
10
145.62
20
-42.34
11
145.62
21
-43.44
0
LINE
8
BLACK
6
CONTINUOUS
10
145.62
20
-43.44
11
145.602
21
-43.4824
0
LINE
8
BLACK
6
CONTINUOUS
10
145.602
20
-43.4824
11
145.56
21
-43.5
0
LINE
8
BLACK
6
CONTINUOUS
10
145.56
20
-43.5
11
145.518
21
-43.4824
0
LINE
8
BLACK
6
CONTINUOUS
10
145.518
20
-43.4824
11
145.5
21
-43.44
0
LINE
8
BLACK
6
CONTINUOUS
10
145.5
20
-43.44
11
145.5
21
-42.4
0
LINE
8
BLACK
6
CONTINUOUS
10
145.5
20
-42.4
11
139.46
21
-42.4
0
LINE
8
BLACK
6
CONTINUOUS
10
139.46
20
-42.4
11
139.418
21
-42.3824
0
LINE
8
BLACK
6
CONTINUOUS
10
139.418
20
-42.3824
11
139.4
21
-42.34
0
LINE
8
BLACK
6
CONTINUOUS
10
139.4
20
-42.34
11
139.418
21
-42.2976
0
LINE
8
BLACK
6
CONTINUOUS
10
139.418
20
-42.2976
11
139.46
21
-42.28
0
LINE
8
BLACK
6
CONTINUOUS
10
139.46
20
-42.28
11
145.56
21
-42.28
0
LINE
8
BLACK
6
CONTINUOUS
10
165.55
20
-42.27
11
165.592
21
-42.2876
0
LINE
8
BLACK
6
CONTINUOUS
10
165.592
20
-42.2876
11
165.61
21
-42.33
0
LINE
8
BLACK
6
CONTINUOUS
10
165.61
20
-42.33
11
165.61
21
-43.43
0
LINE
8
BLACK
6
CONTINUOUS
10
165.61
20
-43.43
11
165.592
21
-43.4724
0
LINE
8
BLACK
6
CONTINUOUS
10
165.592
20
-43.4724
11
165.55
21
-43.49
0
LINE
8
BLACK
6
CONTINUOUS
10
165.55
20
-43.49
11
165.508
21
-43.4724
0
LINE
8
BLACK
6
CONTINUOUS
10
165.508
20
-43.4724
11
165.49
21
-43.43
0
LINE
8
BLACK
6
CONTINUOUS
10
165.49
20
-43.43
11
165.49
21
-42.39
0
LINE
8
BLACK
6
CONTINUOUS
10
165.49
20
-42.39
11
159.45
21
-42.39
0
LINE
8
BLACK
6
CONTINUOUS
10
159.45
20
-42.39
11
159.408
21
-42.3724
0
LINE
8
BLACK
6
CONTINUOUS
10
159.408
20
-42.3724
11
159.39
21
-42.33
0
LINE
8
BLACK
6
CONTINUOUS
10
159.39
20
-42.33
11
159.408
21
-42.2876
0
LINE
8
BLACK
6
CONTINUOUS
10
159.408
20
-42.2876
11
159.45
21
-42.27
0
LINE
8
BLACK
6
CONTINUOUS
10
159.45
20
-42.27
11
165.55
21
-42.27
0
LINE
8
BLACK
6
CONTINUOUS
10
155.57
20
-42.26
11
155.612
21
-42.2776
0
LINE
8
BLACK
6
CONTINUOUS
10
155.612
20
-42.2776
11
155.63
21
-42.32
0
LINE
8
BLACK
6
CONTINUOUS
10
155.63
20
-42.32
11
155.63
21
-43.42
0
LINE
8
BLACK
6
CONTINUOUS
10
155.63
20
-43.42
11
155.612
21
-43.4624
0
LINE
8
BLACK
6
CONTINUOUS
10
155.612
20
-43.4624
11
155.57
21
-43.48
0
LINE
8
BLACK
6
CONTINUOUS
10
155.57
20
-43.48
11
155.528
21
-43.4624
0
LINE
8
BLACK
6
CONTINUOUS
10
155.528
20
-43.4624
11
155.51
21
-43.42
0
LINE
8
BLACK
6
CONTINUOUS
10
155.51
20
-43.42
11
155.51
21
-42.38
0
LINE
8
BLACK
6
CONTINUOUS
10
155.51
20
-42.38
11
149.47
21
-42.38
0
LINE
8
BLACK
6
CONTINUOUS
10
149.47
20
-42.38
11
149.428
21
-42.3624
0
LINE
8
BLACK
6
CONTINUOUS
10
149.428
20
-42.3624
11
149.41
21
-42.32
0
LINE
8
BLACK
6
CONTINUOUS
10
149.41
20
-42.32
11
149.428
21
-42.2776
0
LINE
8
BLACK
6
CONTINUOUS
10
149.428
20
-42.2776
11
149.47
21
-42.26
0
LINE
8
BLACK
6
CONTINUOUS
10
149.47
20
-42.26
11
155.57
21
-42.26
0
LINE
8
BLACK
6
CONTINUOUS
10
175.54
20
-42.26
11
175.582
21
-42.2776
0
LINE
8
BLACK
6
CONTINUOUS
10
175.582
20
-42.2776
11
175.6
21
-42.32
0
LINE
8
BLACK
6
CONTINUOUS
10
175.6
20
-42.32
11
175.6
21
-43.42
0
LINE
8
BLACK
6
CONTINUOUS
10
175.6
20
-43.42
11
175.582
21
-43.4624
0
LINE
8
BLACK
6
CONTINUOUS
10
175.582
20
-43.4624
11
175.54
21
-43.48
0
LINE
8
BLACK
6
CONTINUOUS
10
175.54
20
-43.48
11
175.498
21
-43.4624
0
LINE
8
BLACK
6
CONTINUOUS
10
175.498
20
-43.4624
11
175.48
21
-43.42
0
LINE
8
BLACK
6
CONTINUOUS
10
175.48
20
-43.42
11
175.48
21
-42.38
0
LINE
8
BLACK
6
CONTINUOUS
10
175.48
20
-42.38
11
169.44
21
-42.38
0
LINE
8
BLACK
6
CONTINUOUS
10
169.44
20
-42.38
11
169.398
21
-42.3624
0
LINE
8
BLACK
6
CONTINUOUS
10
169.398
20
-42.3624
11
169.38
21
-42.32
0
LINE
8
BLACK
6
CONTINUOUS
10
169.38
20
-42.32
11
169.398
21
-42.2776
0
LINE
8
BLACK
6
CONTINUOUS
10
169.398
20
-42.2776
11
169.44
21
-42.26
0
LINE
8
BLACK
6
CONTINUOUS
10
169.44
20
-42.26
11
175.54
21
-42.26
0
LINE
8
BLACK
6
CONTINUOUS
10
195.51
20
-42.26
11
195.552
21
-42.2776
0
LINE
8
BLACK
6
CONTINUOUS
10
195.552
20
-42.2776
11
195.57
21
-42.32
0
LINE
8
BLACK
6
CONTINUOUS
10
195.57
20
-42.32
11
195.57
21
-43.42
0
LINE
8
BLACK
6
CONTINUOUS
10
195.57
20
-43.42
11
195.552
21
-43.4624
0
LINE
8
BLACK
6
CONTINUOUS
10
195.552
20
-43.4624
11
195.51
21
-43.48
0
LINE
8
BLACK
6
CONTINUOUS
10
195.51
20
-43.48
11
195.468
21
-43.4624
0
LINE
8
BLACK
6
CONTINUOUS
10
195.468
20
-43.4624
11
195.45
21
-43.42
0
LINE
8
BLACK
6
CONTINUOUS
10
195.45
20
-43.42
11
195.45
21
-42.38
0
LINE
8
BLACK
6
CONTINUOUS
10
195.45
20
-42.38
11
189.41
21
-42.38
0
LINE
8
BLACK
6
CONTINUOUS
10
189.41
20
-42.38
11
189.368
21
-42.3624
0
LINE
8
BLACK
6
CONTINUOUS
10
189.368
20
-42.3624
11
189.35
21
-42.32
0
LINE
8
BLACK
6
CONTINUOUS
10
189.35
20
-42.32
11
189.368
21
-42.2776
0
LINE
8
BLACK
6
CONTINUOUS
10
189.368
20
-42.2776
11
189.41
21
-42.26
0
LINE
8
BLACK
6
CONTINUOUS
10
189.41
20
-42.26
11
195.51
21
-42.26
0
LINE
8
BLACK
6
CONTINUOUS
10
185.51
20
-42.25
11
185.552
21
-42.2676
0
LINE
8
BLACK
6
CONTINUOUS
10
185.552
20
-42.2676
11
185.57
21
-42.31
0
LINE
8
BLACK
6
CONTINUOUS
10
185.57
20
-42.31
11
185.57
21
-43.41
0
LINE
8
BLACK
6
CONTINUOUS
10
185.57
20
-43.41
11
185.552
21
-43.4524
0
LINE
8
BLACK
6
CONTINUOUS
10
185.552
20
-43.4524
11
185.51
21
-43.47
0
LINE
8
BLACK
6
CONTINUOUS
10
185.51
20
-43.47
11
185.468
21
-43.4524
0
LINE
8
BLACK
6
CONTINUOUS
10
185.468
20
-43.4524
11
185.45
21
-43.41
0
LINE
8
BLACK
6
CONTINUOUS
10
185.45
20
-43.41
11
185.45
21
-42.37
0
LINE
8
BLACK
6
CONTINUOUS
10
185.45
20
-42.37
11
179.41
21
-42.37
0
LINE
8
BLACK
6
CONTINUOUS
10
179.41
20
-42.37
11
179.368
21
-42.3524
0
LINE
8
BLACK
6
CONTINUOUS
10
179.368
20
-42.3524
11
179.35
21
-42.31
0
LINE
8
BLACK
6
CONTINUOUS
10
179.35
20
-42.31
11
179.368
21
-42.2676
0
LINE
8
BLACK
6
CONTINUOUS
10
179.368
20
-42.2676
11
179.41
21
-42.25
0
LINE
8
BLACK
6
CONTINUOUS
10
179.41
20
-42.25
11
185.51
21
-42.25
  0
ENDSEC
  0
EOF
